<?xml version="1.0" standalone="no"?>
<!DOCTYPE svg PUBLIC "-//W3C//DTD SVG 20010904//EN"
 "http://www.w3.org/TR/2001/REC-SVG-20010904/DTD/svg10.dtd">
<svg version="1.0" xmlns="http://www.w3.org/2000/svg"
 width="2000.000000pt" height="2000.000000pt" viewBox="0 0 2000.000000 2000.000000"
 preserveAspectRatio="xMidYMid meet">

<g transform="translate(0.000000,2000.000000) scale(0.100000,-0.100000)"
fill="#000000" stroke="none">
<path d="M0 10000 l0 -10000 3725 0 3725 0 0 33 0 33 233 -3 c422 -5 558 -3
577 7 28 15 56 12 92 -10 40 -24 113 -27 122 -5 7 20 78 20 118 -1 22 -11 44
-14 77 -10 102 14 206 14 235 0 19 -9 34 -11 46 -4 25 13 63 13 93 -1 16 -7
31 -8 43 -2 12 6 74 6 159 1 153 -9 227 -12 630 -24 343 -11 8999 -12 9280 -1
207 8 511 15 733 16 l112 1 0 9985 0 9985 -10000 0 -10000 0 0 -10000z m14965
3270 c-3 -5 -12 -7 -20 -3 -21 7 -19 13 6 13 11 0 18 -4 14 -10z m-95 -11 c0
-5 -4 -8 -9 -4 -5 3 -12 1 -16 -5 -3 -5 -11 -10 -16 -10 -14 0 14 29 29 30 6
0 12 -5 12 -11z m90 -16 c8 2 21 6 29 11 10 6 12 4 7 -11 -9 -28 34 -47 71
-31 34 14 64 11 78 -6 8 -11 13 -11 22 -1 7 7 10 14 8 16 -1 2 4 10 11 17 13
12 14 10 12 -10 -2 -13 -7 -29 -11 -35 -11 -18 1 -16 20 2 10 10 23 13 37 9
35 -11 49 -10 54 6 4 13 3 13 -10 2 -10 -8 -19 -9 -22 -3 -4 5 -2 12 3 16 6 3
8 13 5 23 -5 13 -4 14 4 3 6 -8 24 -14 41 -13 17 0 33 -4 36 -9 4 -5 14 -9 23
-9 13 0 14 2 3 9 -8 5 -9 11 -3 15 6 3 14 2 17 -4 5 -8 15 -6 33 5 l27 16 -22
-20 c-31 -26 -29 -31 10 -31 22 0 28 -3 18 -9 -8 -5 -20 -7 -28 -4 -7 3 -13 0
-13 -7 0 -6 4 -9 9 -6 5 4 12 0 14 -6 4 -9 8 -9 14 -3 13 16 53 13 53 -4 0
-12 3 -12 12 -3 7 7 20 12 31 12 10 0 15 5 12 10 -3 6 -1 10 4 10 21 0 11 -21
-15 -30 l-25 -10 25 -25 c24 -24 64 -36 51 -15 -3 5 0 19 8 31 10 13 17 17 22
10 8 -14 25 -5 21 12 -1 7 -1 9 1 5 3 -5 11 -8 19 -8 8 0 14 -7 14 -15 0 -8
-6 -15 -14 -15 -9 0 -12 -7 -9 -20 6 -23 23 -27 23 -5 0 8 6 15 13 15 6 0 22
3 35 6 13 4 22 2 22 -5 0 -6 -13 -11 -30 -11 -33 0 -42 -19 -10 -21 11 -1 26
-2 33 -3 6 -1 23 -11 36 -23 13 -12 31 -19 40 -16 12 4 12 2 -2 -8 -17 -14
-17 -15 2 -16 16 -1 21 4 21 23 0 13 -5 24 -11 24 -5 0 -8 4 -4 9 9 16 66 -22
59 -39 -14 -37 -17 -73 -5 -66 6 4 9 12 5 17 -3 5 -1 15 4 22 6 7 10 16 10 22
0 5 5 11 10 13 6 2 9 -5 7 -15 -2 -10 -4 -18 -5 -18 -1 0 -3 -15 -5 -32 -3
-35 3 -41 24 -20 10 10 11 9 6 -4 -4 -10 0 -19 9 -22 9 -4 16 -16 16 -27 0
-12 4 -19 10 -15 5 3 7 12 4 19 -7 19 30 30 54 17 11 -6 22 -8 25 -5 9 9 39
-64 31 -77 -4 -8 -3 -9 4 -5 6 4 26 -1 44 -10 26 -14 31 -14 21 -2 -7 8 -10
18 -6 21 9 9 33 -12 33 -29 0 -8 7 -14 15 -14 9 0 18 -6 21 -14 3 -8 16 -17
30 -20 38 -10 30 -36 -11 -36 -34 0 -46 12 -25 25 17 10 -6 32 -32 31 -21 -1
-40 -26 -20 -26 6 0 13 -8 17 -17 3 -10 17 -26 30 -36 20 -14 24 -15 19 -2 -5
12 -2 14 17 6 22 -7 42 -53 22 -50 -22 4 -25 -3 -7 -17 10 -8 13 -13 7 -9 -7
3 -13 2 -13 -3 0 -17 13 -22 27 -10 11 9 21 5 46 -19 18 -17 42 -34 54 -37 25
-8 49 -34 39 -43 -3 -3 -14 1 -24 10 -26 24 -35 21 -28 -9 5 -17 3 -23 -4 -19
-5 3 -10 2 -10 -4 0 -5 6 -12 13 -15 8 -3 6 -9 -7 -20 -12 -10 -15 -16 -7 -16
7 0 11 -6 8 -14 -4 -10 -1 -13 9 -9 8 3 14 -1 14 -10 0 -8 5 -17 12 -19 6 -2
12 -14 13 -25 0 -12 7 -28 14 -37 8 -9 10 -23 6 -33 -13 -30 -14 -46 -4 -62 9
-14 10 -14 5 1 -6 20 29 55 39 38 4 -6 4 -18 0 -28 -3 -9 -3 -13 1 -10 4 4 16
3 26 -3 15 -8 17 -14 9 -22 -13 -13 -15 -31 -3 -23 4 2 8 -4 9 -14 1 -11 -3
-23 -9 -26 -6 -4 -8 -3 -5 2 6 11 -9 42 -16 34 -12 -13 -17 -50 -8 -50 14 0
14 -37 1 -45 -6 -4 -8 -15 -5 -25 3 -11 1 -28 -4 -39 -7 -13 -8 -22 -1 -26 5
-3 10 1 10 10 0 11 7 15 23 13 25 -3 26 -37 0 -51 -10 -6 -12 -17 -8 -38 6
-25 4 -29 -15 -29 -18 0 -20 -3 -11 -14 9 -11 9 -15 -1 -20 -10 -5 -10 -7 0
-12 6 -3 12 -13 12 -21 0 -12 3 -13 14 -4 11 9 15 6 18 -14 4 -21 3 -23 -9
-14 -27 23 -25 -1 3 -27 17 -16 22 -25 12 -21 -29 10 -31 -12 -3 -25 22 -10
24 -13 10 -21 -15 -8 -14 -12 7 -34 21 -23 22 -25 5 -34 -9 -6 -15 -14 -12
-20 8 -12 45 -12 45 1 0 5 7 7 16 3 14 -5 13 -9 -7 -24 -17 -13 -19 -19 -9
-19 8 0 21 -9 28 -20 7 -11 19 -20 27 -20 20 0 19 -29 0 -36 -8 -4 -15 -10
-15 -14 0 -13 29 -20 36 -8 4 7 3 8 -4 4 -7 -4 -12 -3 -12 3 0 6 16 10 35 9
33 -1 34 -2 15 -15 -21 -15 -29 -83 -9 -83 18 0 38 -26 29 -39 -5 -9 -9 -7
-13 8 -3 12 -9 21 -14 21 -11 0 -11 -30 1 -48 5 -8 -2 -16 -19 -22 -28 -11
-24 -35 5 -27 11 3 17 -1 17 -12 1 -26 15 -61 23 -56 8 5 23 -25 16 -32 -2 -3
-14 5 -27 18 l-22 22 -9 -23 c-5 -13 -6 -25 -3 -28 2 -3 -3 -12 -13 -21 -18
-17 -26 -51 -10 -51 14 0 58 -51 52 -61 -11 -18 -34 -9 -34 14 0 23 -34 52
-50 42 -6 -4 -10 4 -10 17 0 18 2 20 10 8 6 -9 10 -10 10 -3 0 19 -20 26 -26
9 -8 -21 18 -77 33 -72 7 3 15 1 18 -4 3 -5 -3 -10 -12 -12 -14 -3 -11 -8 15
-21 17 -10 32 -20 32 -24 0 -3 -3 -4 -6 0 -3 3 -21 -3 -40 -14 -42 -23 -51
-24 -33 -2 12 15 12 16 -2 11 -9 -4 -22 -1 -28 5 -9 9 -9 4 0 -21 6 -17 15
-30 19 -27 16 10 20 -12 9 -44 -9 -26 -13 -28 -24 -17 -8 8 -11 23 -8 36 4 17
2 21 -8 18 -15 -5 -22 -88 -7 -88 5 0 6 6 2 13 -4 7 -3 8 2 4 5 -5 9 -21 10
-37 2 -29 2 -29 -16 -8 -14 18 -18 19 -23 5 -4 -11 1 -18 14 -22 13 -4 18 -12
15 -22 -3 -8 -1 -23 4 -34 7 -13 7 -19 0 -19 -5 0 -10 5 -10 10 0 6 -4 10 -10
10 -5 0 -10 -7 -10 -15 0 -8 -7 -15 -15 -15 -12 0 -13 -4 -6 -19 6 -10 7 -21
3 -25 -3 -4 1 -4 9 -1 11 4 18 -1 22 -14 6 -24 6 -24 -27 -11 -29 11 -34 3 -9
-15 9 -7 13 -17 9 -23 -10 -16 -29 -15 -24 0 3 7 -1 18 -8 25 -15 15 -28 17
-19 3 9 -14 -8 -12 -24 3 -21 18 -3 -12 23 -41 17 -19 18 -25 6 -32 -10 -6 -6
-9 15 -12 16 -2 30 -9 33 -16 3 -9 -4 -11 -23 -8 -21 4 -24 2 -16 -8 6 -7 8
-16 4 -20 -4 -4 0 -4 9 -1 21 8 34 -13 18 -28 -10 -9 -11 -9 -6 1 5 8 -1 12
-18 12 -21 0 -25 -4 -23 -22 1 -14 -3 -22 -10 -20 -7 1 -13 -2 -13 -8 0 -14
23 -12 39 3 10 9 15 9 18 1 2 -7 13 -10 23 -7 16 4 20 0 20 -21 0 -14 -5 -26
-11 -26 -7 0 -9 9 -6 21 4 16 3 18 -8 9 -10 -8 -14 -8 -17 1 -3 8 -11 10 -23
5 -12 -4 -15 -10 -9 -14 21 -14 22 -39 3 -53 -24 -17 -24 -24 1 -26 11 -1 20
2 20 7 0 4 9 6 20 3 26 -7 26 -23 0 -23 -11 0 -23 -7 -27 -16 -3 -8 -11 -13
-18 -10 -8 3 -11 -2 -8 -15 8 -28 -25 -25 -37 4 -5 12 -9 15 -9 7 -1 -25 13
-38 43 -42 16 -1 32 -10 34 -18 5 -13 3 -13 -12 -1 -14 12 -19 12 -29 1 -10
-10 -9 -12 6 -7 11 4 17 1 17 -9 0 -10 6 -14 15 -10 8 3 15 1 15 -5 0 -6 8 -8
18 -4 13 5 14 3 6 -5 -9 -9 -20 -8 -47 5 -30 14 -38 14 -56 3 -22 -14 -28 -28
-11 -28 6 0 10 4 10 10 0 5 7 7 16 3 15 -6 15 -8 -2 -20 -17 -12 -17 -13 0
-13 27 0 10 -18 -25 -25 -22 -5 -27 -10 -20 -19 6 -7 10 -15 8 -17 -1 -2 5 4
14 14 9 11 24 17 35 14 16 -4 15 -5 -4 -6 -13 0 -21 -5 -17 -10 3 -5 1 -12 -4
-16 -6 -3 -7 -13 -4 -22 4 -11 3 -14 -5 -9 -12 7 -16 -5 -13 -31 2 -18 -9 -16
-31 4 -17 15 -18 15 -18 -9 0 -13 3 -28 7 -32 12 -12 10 -42 -6 -56 -13 -12
-14 -12 -8 3 3 9 2 17 -4 17 -17 0 -41 -29 -34 -41 4 -5 -1 -20 -12 -31 -15
-18 -15 -20 -2 -15 12 4 17 -1 17 -19 0 -28 -13 -32 -22 -7 -5 13 -9 14 -19 3
-9 -10 -9 -13 0 -17 9 -3 9 -12 2 -30 -5 -15 -8 -32 -5 -39 3 -8 0 -11 -10 -7
-20 7 -18 -7 4 -24 15 -13 15 -13 -4 -4 -17 8 -25 7 -34 -4 -7 -8 -19 -15 -26
-15 -8 0 -14 -7 -14 -15 0 -8 3 -14 8 -14 33 5 17 -6 -22 -15 -27 -7 -52 -18
-54 -25 -3 -10 2 -11 18 -6 19 6 22 4 16 -11 -4 -9 -2 -20 4 -24 7 -5 6 -11
-5 -20 -12 -10 -15 -10 -15 3 0 8 -7 21 -17 28 -15 13 -15 12 -4 -9 11 -20 8
-26 -25 -57 -20 -19 -43 -35 -50 -35 -8 0 -14 -4 -14 -10 0 -5 7 -7 15 -4 23
9 18 -6 -11 -32 -14 -13 -23 -28 -19 -34 3 -5 -3 -7 -14 -5 -15 3 -19 -1 -16
-16 2 -10 -1 -19 -7 -19 -5 0 -8 -7 -4 -15 4 -10 -1 -15 -15 -15 -11 0 -18 4
-15 8 2 4 -9 9 -25 10 -32 3 -34 0 -19 -29 7 -13 7 -19 0 -19 -5 0 -10 -5 -10
-12 0 -9 3 -9 12 0 16 16 38 15 38 -1 0 -18 -57 -50 -65 -37 -3 5 -12 10 -18
10 -7 0 -6 -4 3 -10 13 -8 12 -11 -4 -23 -12 -9 -16 -19 -11 -27 5 -9 4 -11
-4 -6 -6 4 -14 0 -17 -9 -6 -14 -9 -14 -28 2 -21 18 -21 18 -5 -2 27 -34 31
-45 15 -39 -11 4 -16 0 -16 -10 0 -21 -10 -20 -26 1 -7 10 -16 14 -21 9 -4 -5
-2 -11 5 -13 6 -3 12 -11 12 -19 0 -8 9 -14 20 -14 11 0 20 4 20 10 0 5 7 7
15 4 8 -4 15 -1 15 5 0 6 5 11 11 11 8 0 8 -5 -1 -15 -7 -8 -18 -15 -25 -15
-6 0 -20 -9 -30 -20 -10 -11 -24 -20 -32 -20 -16 0 -17 -12 -1 -28 14 -14 12
-15 -32 -2 l-35 9 24 -19 23 -20 -27 0 c-22 0 -25 -3 -20 -22 6 -16 4 -20 -8
-15 -10 4 -16 0 -16 -11 -1 -41 -5 -48 -25 -48 -14 1 -21 -5 -21 -19 0 -13 -6
-19 -17 -17 -15 2 -16 -1 -9 -21 9 -22 7 -24 -11 -19 -14 3 -26 -1 -34 -13 -8
-10 -17 -16 -20 -12 -4 4 -1 15 7 24 10 14 10 16 0 6 -7 -6 -20 -9 -27 -6 -20
7 -17 -14 3 -25 9 -6 18 -17 19 -26 2 -17 -8 -14 -40 13 -14 11 -20 13 -23 4
-2 -7 -10 -10 -18 -7 -10 4 -12 -1 -8 -17 4 -15 3 -20 -5 -15 -7 4 -12 15 -13
24 0 11 -3 12 -6 5 -2 -7 -18 -13 -34 -13 -16 0 -29 -4 -29 -10 0 -5 8 -7 18
-3 14 5 15 3 5 -7 -10 -11 -15 -11 -28 0 -10 8 -19 9 -27 2 -17 -13 -61 -9
-66 6 -2 7 -8 9 -14 6 -5 -3 -16 2 -24 12 -13 16 -15 16 -11 2 4 -10 -1 -18
-15 -21 -14 -4 -18 -11 -13 -25 3 -11 1 -23 -4 -26 -5 -4 -12 2 -16 13 -6 19
-35 38 -35 23 0 -14 -89 -10 -94 5 -3 7 -12 10 -21 7 -8 -4 -17 1 -21 10 -3 9
-11 16 -17 16 -6 0 -8 -3 -4 -6 3 -4 0 -13 -8 -20 -16 -16 -29 -19 -20 -4 3 6
1 10 -5 10 -6 0 -8 5 -5 10 3 6 -5 11 -19 12 -14 0 -32 1 -38 2 -7 1 -12 -4
-11 -11 4 -16 -28 -4 -44 16 -11 14 -12 14 -13 -1 0 -19 -20 -26 -20 -8 0 16
-30 12 -36 -5 -4 -8 -10 -12 -16 -9 -5 3 -4 11 3 20 9 11 8 14 -4 14 -10 0
-14 6 -11 14 3 9 -4 19 -16 26 -13 7 -20 8 -16 2 3 -6 3 -13 -2 -16 -12 -7
-57 17 -58 32 -3 23 -4 24 -19 12 -13 -11 -19 -9 -38 7 -12 11 -28 18 -36 15
-9 -3 -12 0 -9 10 3 7 -1 23 -9 33 -13 17 -15 17 -10 3 5 -13 1 -18 -11 -18
-18 0 -46 14 -41 21 2 2 -2 13 -8 24 -10 16 -13 17 -27 5 -13 -10 -20 -10 -28
-2 -9 9 -7 12 8 12 19 1 19 1 -1 12 -24 13 -55 47 -55 60 0 4 -7 8 -16 8 -8 0
-13 4 -10 9 3 5 -2 8 -11 7 -14 -1 -17 8 -18 39 0 34 -3 40 -23 41 -17 1 -20
-2 -11 -12 17 -21 -37 -39 -57 -20 -19 19 -18 46 2 46 8 0 12 5 9 10 -3 6 0
10 7 11 7 0 3 5 -9 11 -13 6 -23 16 -23 22 0 6 -4 5 -9 -3 -8 -12 -12 -12 -25
-2 -20 17 -21 35 -1 27 18 -7 20 5 3 22 -7 7 -8 12 -3 12 20 0 -32 29 -55 31
-17 1 -20 3 -7 6 9 2 17 9 17 14 0 6 -4 8 -9 4 -5 -3 -13 -1 -16 5 -5 8 -11 8
-20 0 -9 -8 -15 -8 -20 0 -3 5 -2 10 4 10 5 0 19 13 30 29 19 26 19 29 3 27
-9 0 -17 6 -17 14 0 9 8 14 21 12 12 -1 27 5 35 14 13 16 12 16 -7 6 -11 -6
-29 -9 -40 -7 -10 2 -21 4 -24 4 -3 1 8 10 23 20 19 12 24 20 16 23 -9 3 -4
14 16 34 29 28 29 29 7 32 -23 4 -31 32 -9 32 6 1 2 9 -10 19 -13 11 -23 23
-23 28 0 5 -11 16 -25 23 -15 8 -23 20 -20 27 2 8 0 11 -5 8 -12 -7 -38 16
-33 30 1 6 -8 15 -22 22 -14 6 -23 8 -20 3 12 -20 13 -81 0 -86 -7 -3 -11 -14
-8 -25 3 -10 -1 -27 -8 -36 -12 -14 -12 -16 2 -11 10 4 16 1 16 -8 0 -19 -22
-18 -41 2 -9 8 -21 12 -26 9 -6 -4 -17 -2 -24 4 -10 8 -18 6 -31 -9 -13 -14
-26 -18 -44 -14 -14 3 -42 6 -61 7 -19 2 -39 5 -45 9 -5 3 -28 9 -50 13 -22 4
-46 11 -52 17 -7 6 -24 8 -37 6 -15 -3 -24 -1 -23 6 1 6 -4 10 -10 9 -7 -2
-13 1 -13 6 0 9 -31 23 -55 26 -5 0 -21 6 -35 12 -78 36 -122 51 -139 48 -15
-3 -18 1 -14 12 4 11 2 14 -5 9 -11 -7 -17 7 -12 29 1 5 -1 7 -5 3 -9 -9 -66
12 -60 22 3 5 -3 7 -12 6 -16 -3 -25 2 -58 32 -7 6 -17 12 -22 12 -4 0 -21 14
-37 31 -16 16 -35 28 -42 25 -11 -4 -13 1 -8 22 5 25 4 26 -9 9 -10 -12 -17
-14 -22 -8 -3 6 -2 11 4 11 5 0 3 13 -5 29 -12 25 -20 29 -59 29 -24 1 -47 -3
-50 -8 -19 -30 -98 16 -93 54 2 11 10 21 18 21 8 1 14 7 12 14 -1 7 3 19 9 27
7 8 9 17 6 21 -4 3 -9 -2 -13 -11 -3 -9 -10 -16 -14 -16 -11 0 0 73 11 80 13
9 -33 91 -48 86 -7 -3 -13 -1 -13 5 0 6 -5 7 -12 3 -9 -6 -9 -9 0 -12 7 -2 12
-8 12 -14 0 -6 -6 -6 -15 2 -8 7 -15 21 -15 31 0 15 -4 17 -24 9 -21 -8 -25
-5 -41 30 -10 22 -22 37 -26 34 -15 -9 -10 14 6 29 8 9 10 17 5 19 -5 2 -7 13
-4 25 7 24 66 48 139 57 22 2 74 10 115 16 41 7 83 12 93 12 9 -1 17 5 17 11
0 8 3 7 9 -2 6 -10 12 -6 23 15 13 28 13 29 -9 30 -13 1 -23 -2 -23 -7 0 -5
-7 -9 -15 -9 -8 0 -15 5 -15 10 0 14 -34 12 -49 -2 -10 -11 -11 -9 -5 6 6 16
4 17 -17 11 -13 -4 -27 -12 -30 -18 -4 -5 -14 -7 -23 -4 -9 4 -15 3 -15 -1 3
-18 -3 -20 -27 -7 -15 7 -33 11 -40 8 -10 -4 -12 0 -8 11 3 9 11 16 18 16 6 0
5 4 -3 9 -17 11 -46 -13 -36 -30 5 -7 -1 -9 -16 -7 -15 2 -29 15 -39 35 -9 20
-23 33 -35 33 l-20 1 20 9 c28 12 37 12 30 0 -3 -5 -1 -10 5 -10 7 0 10 -6 7
-14 -9 -22 23 -29 44 -10 10 9 30 17 43 17 14 0 24 3 21 7 -3 4 4 17 14 28 14
17 20 19 31 9 10 -9 11 -9 6 1 -4 6 -3 12 2 12 13 0 35 -28 29 -37 -3 -4 6 -8
19 -8 13 0 24 3 24 8 0 4 -6 7 -12 7 -9 0 -8 4 2 10 22 14 40 12 34 -5 -4 -9
3 -16 22 -21 26 -7 26 -8 9 -20 -16 -12 -17 -14 -2 -14 9 0 23 9 31 21 9 14
19 18 27 13 8 -4 27 -8 44 -9 43 -1 73 -30 69 -67 -2 -18 0 -27 7 -23 5 4 7
15 4 26 -4 11 -2 19 5 19 6 0 8 5 5 10 -3 6 -1 10 4 10 6 0 11 -8 11 -18 0
-32 14 -34 40 -5 14 16 21 22 15 14 -9 -12 -7 -12 14 -2 19 11 25 11 33 0 10
-14 7 -2 -8 36 -5 11 -2 13 10 9 11 -4 23 1 32 12 9 11 13 13 9 7 -9 -18 3
-16 22 2 8 8 19 13 24 10 5 -4 9 1 9 10 0 11 7 14 24 11 15 -3 27 1 30 10 3 8
12 14 21 14 8 0 15 5 15 11 0 5 14 15 30 20 17 6 30 17 30 25 0 8 4 14 8 14
13 0 82 67 82 79 0 6 10 10 22 8 12 -1 23 3 24 8 2 24 17 43 28 39 7 -3 19 10
28 28 11 22 17 27 17 15 1 -10 6 -15 11 -12 6 4 8 10 5 15 -3 4 2 13 10 20 8
7 12 17 8 23 -4 6 0 8 10 4 10 -3 17 -2 17 2 0 5 -6 12 -12 14 -8 3 -6 6 4 6
9 1 22 -7 27 -16 6 -10 11 -12 11 -5 0 15 50 16 50 1 0 -6 -7 -9 -15 -5 -8 3
-15 2 -15 -3 0 -5 9 -11 21 -14 17 -5 20 -1 17 21 -2 15 -9 26 -15 24 -7 -1
-13 2 -13 8 0 15 29 12 46 -5 12 -11 20 -12 35 -5 11 6 25 8 31 4 6 -4 22 -8
36 -10 38 -4 75 -26 60 -35 -6 -4 -12 -17 -13 -28 -1 -17 2 -20 19 -15 19 6
19 5 7 -10 -13 -15 -13 -19 0 -26 46 -29 48 -32 32 -49 -11 -10 -12 -16 -4
-19 18 -6 12 -22 -8 -22 -23 0 -37 -16 -19 -23 10 -3 10 -7 -1 -20 -11 -14
-11 -20 -1 -32 10 -12 10 -18 1 -29 -8 -10 -9 -16 -1 -21 5 -3 10 -23 10 -44
0 -36 1 -37 29 -33 25 3 30 -1 41 -30 7 -18 13 -43 14 -55 0 -12 4 -20 8 -17
10 7 10 -17 -1 -34 -10 -16 4 -100 25 -158 8 -22 14 -44 14 -50 -3 -14 12 -54
20 -54 10 0 30 -47 30 -70 0 -11 9 -24 21 -30 11 -7 18 -18 15 -25 -3 -9 0
-12 10 -8 15 6 44 -13 44 -29 0 -6 -8 -4 -17 3 -10 8 -4 -2 12 -22 17 -19 32
-31 33 -27 2 5 10 3 18 -3 10 -8 11 -14 4 -19 -7 -5 -6 -11 5 -20 13 -11 15
-10 9 4 -9 22 9 20 32 -5 16 -17 16 -22 4 -31 -13 -8 -13 -9 0 -5 9 3 42 -15
74 -39 52 -40 76 -52 76 -39 0 2 -20 16 -45 31 -25 14 -44 28 -41 31 2 3 15
-2 28 -10 12 -8 48 -25 78 -38 30 -13 58 -28 62 -33 4 -6 10 -7 14 -4 3 4 -8
16 -26 26 -19 12 -27 22 -21 27 7 3 26 -2 44 -13 18 -10 60 -22 92 -26 33 -3
82 -13 109 -21 55 -17 69 -13 40 11 -18 14 -17 15 11 11 17 -3 43 -8 59 -11
25 -6 26 -5 14 8 -8 8 -34 20 -57 27 -22 7 -46 18 -52 26 -6 7 -20 13 -31 13
-26 0 -118 40 -118 52 0 5 8 7 18 4 10 -3 43 -8 74 -11 32 -3 61 -5 65 -6 4
-1 22 -1 38 0 28 2 29 3 12 15 -16 13 -13 15 35 19 80 8 119 18 116 31 -1 6 4
22 11 35 10 17 15 20 21 11 5 -8 15 -10 26 -5 26 11 41 8 96 -21 52 -26 74
-30 80 -13 3 8 17 5 43 -8 61 -30 110 -29 140 3 14 15 22 32 18 38 -3 6 0 6 7
-1 11 -10 17 -9 32 4 18 16 18 16 12 0 -5 -13 -2 -16 10 -11 10 4 15 12 12 19
-6 16 44 7 67 -13 16 -14 17 -13 17 11 0 15 6 27 13 27 15 1 51 49 43 57 -3 4
-6 1 -6 -5 0 -6 -7 -9 -15 -6 -8 4 -12 10 -9 16 3 5 -3 12 -15 15 -26 7 -26 8
-1 43 18 26 19 28 3 35 -10 3 -19 1 -21 -4 -2 -6 -9 -8 -14 -5 -7 4 -8 2 -4
-5 4 -6 12 -8 18 -5 6 4 9 1 7 -5 -3 -7 -8 -12 -12 -12 -4 1 -18 1 -32 1 -15
0 -25 5 -24 13 4 31 -1 40 -15 28 -11 -9 -20 -7 -40 12 -14 13 -23 27 -19 30
3 4 -1 7 -10 7 -9 0 -21 9 -27 20 -6 11 -17 20 -25 20 -23 0 -57 39 -51 58 5
14 4 14 -8 -1 -13 -17 -15 -17 -30 5 -18 26 -21 17 -5 -14 7 -13 -4 -7 -26 15
-22 21 -48 37 -61 37 -13 0 -28 8 -34 18 -10 15 -11 15 -7 -5 l5 -21 -32 19
c-35 21 -46 24 -46 9 0 -5 8 -10 17 -10 13 0 14 -3 5 -12 -16 -16 -94 15 -141
56 -20 18 -47 37 -61 44 -14 7 -38 20 -55 30 -72 44 -144 80 -149 75 -3 -3
-20 4 -38 15 -18 11 -49 23 -68 27 l-35 8 40 12 c22 7 34 13 28 14 -18 1 -16
21 2 21 17 0 20 16 6 24 -5 4 -11 0 -14 -6 -2 -7 -7 -11 -10 -8 -3 3 1 14 9
24 13 19 14 19 34 1 11 -10 20 -13 20 -7 0 6 -4 14 -10 17 -5 3 -10 11 -10 16
0 6 11 2 25 -9 16 -13 33 -18 52 -14 25 5 25 6 8 13 -29 11 -37 10 -29 -3 4
-7 3 -8 -5 -4 -6 4 -9 12 -6 17 4 5 -4 14 -17 19 -23 10 -23 10 2 4 14 -3 32
-7 40 -8 8 -1 26 -8 40 -15 24 -12 24 -12 -2 13 -16 14 -28 27 -28 29 0 1 16
3 35 3 20 0 30 -3 22 -8 -9 -5 -7 -12 7 -25 19 -17 19 -17 5 1 -12 17 -12 19
1 14 59 -23 57 -23 37 -1 -24 28 -11 34 36 18 21 -7 40 -9 43 -4 3 5 2 9 -3 8
-4 -1 -20 1 -34 5 -20 6 -25 12 -21 28 3 13 7 16 12 8 4 -7 12 -10 18 -6 6 3
13 0 15 -6 3 -7 6 -1 6 15 1 15 -4 27 -10 27 -5 0 -7 5 -4 10 3 6 -1 10 -9 10
-8 0 -17 4 -20 9 -4 5 2 7 13 4 10 -3 22 0 25 6 4 6 12 11 18 11 6 0 8 -3 5
-7 -4 -3 5 -15 20 -25 16 -10 23 -18 16 -18 -7 0 -10 -7 -6 -15 6 -16 26 -17
23 -1 -1 5 4 12 10 16 7 4 12 24 13 44 1 42 3 43 25 15 16 -19 77 -36 66 -18
-3 5 -14 9 -25 9 -13 0 -19 6 -18 23 1 16 2 18 6 5 2 -10 9 -18 15 -18 6 0 8
9 5 20 -3 13 1 21 14 25 29 10 61 -4 55 -23 -4 -13 1 -17 19 -18 19 -2 25 3
25 18 0 13 5 18 14 15 10 -4 13 -1 9 9 -6 17 -20 18 -25 2 -2 -6 -10 -8 -16
-4 -17 10 -15 26 3 26 13 0 13 4 -3 28 -10 15 -23 36 -28 47 -6 11 -19 22 -28
23 -15 3 -16 1 -6 -20 9 -19 9 -20 -2 -7 -14 17 -48 22 -48 7 0 -5 -5 -6 -10
-3 -11 7 6 28 27 36 7 2 3 14 -13 32 -16 19 -24 23 -24 13 0 -8 -10 -21 -22
-27 -13 -6 -20 -8 -15 -4 4 5 0 19 -8 31 -11 17 -12 24 -2 28 7 3 3 7 -10 11
-13 4 -21 10 -19 14 7 10 -18 26 -41 26 -13 0 -23 5 -24 10 -1 19 -22 36 -37
30 -7 -3 -27 6 -43 20 -18 14 -36 22 -46 18 -11 -4 -14 -3 -9 5 5 8 -6 12 -36
13 -24 1 -33 4 -20 6 23 5 27 11 14 28 -8 11 -31 16 -77 16 -16 0 -35 5 -42
10 -7 6 -16 8 -21 5 -5 -3 -19 4 -30 15 -12 11 -22 17 -22 15 0 -3 -11 -1 -25
4 -17 7 -33 6 -52 -3 -21 -9 -27 -9 -31 1 -2 6 -8 12 -14 12 -6 0 -7 -7 -4
-17 4 -10 -1 -23 -14 -35 -27 -25 -45 -14 -25 15 20 28 19 43 -1 26 -14 -11
-18 -10 -30 6 -32 47 -39 51 -42 27 -3 -19 -8 -22 -32 -19 -23 4 -27 2 -23
-14 3 -11 2 -19 -3 -17 -5 2 -10 -1 -11 -7 -1 -5 4 -10 11 -9 6 1 13 -7 13
-17 1 -11 -3 -19 -8 -19 -6 0 -7 -4 -4 -10 3 -5 1 -10 -4 -10 -6 0 -11 6 -11
13 0 7 -7 3 -15 -7 -10 -13 -12 -23 -5 -30 15 -15 12 -43 -6 -50 -8 -3 -12
-10 -9 -16 3 -6 -1 -7 -9 -4 -9 4 -16 18 -16 34 0 16 -4 31 -10 35 -5 3 -7 12
-3 20 6 18 -1 19 -28 5 -15 -9 -17 -15 -9 -30 7 -12 7 -21 0 -25 -5 -3 -10
-11 -10 -16 0 -6 4 -8 8 -5 4 2 8 -4 8 -14 0 -15 -3 -16 -14 -8 -7 7 -12 21
-10 33 6 27 -18 29 -25 3 -3 -10 -1 -16 4 -12 5 3 9 1 9 -4 0 -16 50 -63 60
-57 6 3 7 -1 4 -9 -3 -9 -10 -16 -16 -16 -5 0 -6 -4 -3 -10 12 -20 -16 -10
-38 14 -12 13 -32 26 -45 30 -12 4 -20 12 -17 17 4 5 1 9 -4 9 -6 0 -11 -4
-11 -10 0 -5 -9 -10 -21 -10 -15 0 -19 -4 -15 -16 5 -14 4 -15 -9 -4 -8 7 -15
9 -15 5 0 -4 -7 -1 -17 6 -9 8 -25 12 -36 11 -15 -3 -18 0 -14 12 4 10 1 16
-8 16 -8 0 -15 -9 -15 -21 0 -11 -4 -18 -10 -14 -5 3 -7 12 -3 20 3 8 0 15 -6
15 -6 0 -10 -3 -10 -7 3 -20 -2 -27 -10 -14 -6 10 -5 27 4 47 12 28 11 32 -1
27 -8 -3 -15 -9 -15 -14 -1 -5 -3 -13 -4 -19 -1 -5 -3 -14 -4 -20 0 -5 -8 -7
-16 -4 -9 4 -15 0 -15 -7 -1 -10 -4 -9 -10 3 -12 20 -3 48 15 48 17 0 25 23
14 41 -7 11 -9 9 -9 -7 0 -26 -36 -39 -44 -17 -3 8 -2 11 3 8 5 -3 13 0 16 6
4 6 -2 13 -15 16 -12 3 -19 11 -16 19 3 7 0 15 -7 18 -9 5 -9 7 1 12 20 9 14
26 -8 19 -12 -4 -20 -2 -20 5 0 7 -6 10 -14 7 -14 -5 -36 10 -36 25 0 4 5 8
11 8 5 0 7 -4 4 -10 -4 -6 5 -10 19 -10 16 0 25 5 24 13 -2 6 2 11 9 10 7 -2
10 4 6 12 -4 11 -9 13 -18 5 -9 -7 -15 -3 -23 16 -16 35 -15 41 4 18 8 -10 13
-14 10 -7 -4 6 -2 14 4 18 5 3 10 10 10 15 0 9 -52 6 -69 -4 -5 -4 -13 -1 -17
6 -4 7 -4 10 1 6 4 -4 14 -3 22 3 11 10 11 15 1 27 -9 11 -9 14 -1 9 6 -4 15
-2 19 4 4 8 9 7 15 -2 7 -12 9 -12 9 0 0 7 6 11 15 7 8 -3 15 -1 15 5 0 6 4 8
8 5 12 -7 8 59 -4 75 -6 8 -11 30 -11 50 -1 50 -20 82 -44 76 -10 -3 -19 -1
-19 4 0 5 7 9 15 9 8 0 15 5 15 11 0 7 -7 8 -17 4 -21 -8 -74 -17 -55 -9 6 3
10 9 7 14 -3 5 7 18 22 30 25 20 26 22 5 16 -25 -8 -42 18 -24 36 7 7 4 16
-10 30 -17 17 -18 22 -7 30 11 7 11 11 1 15 -6 2 -9 9 -6 15 4 5 -4 5 -16 -2
-18 -10 -21 -9 -15 1 12 18 14 69 4 69 -5 0 -9 -4 -9 -10 0 -5 -4 -10 -9 -10
-13 0 5 61 21 71 7 4 16 5 20 3 4 -3 8 0 8 6 0 7 -7 10 -15 6 -35 -13 -10 28
30 48 23 12 31 13 38 3 6 -9 7 -8 4 3 -2 8 -10 15 -18 16 -30 2 -33 5 -19 14
8 5 23 7 33 4 20 -6 23 6 5 24 -7 7 -8 12 -3 12 4 0 0 9 -9 19 -17 19 -16 19
16 16 18 -2 41 -6 51 -10 10 -4 17 -3 17 5 0 6 -4 8 -10 5 -5 -3 -10 -1 -10 4
0 6 -7 11 -15 11 -8 0 -15 4 -15 9 0 14 70 8 79 -7 5 -9 14 -5 30 14 18 21 20
28 10 35 -19 11 -31 0 -24 -22 8 -23 -8 -25 -25 -4 -7 9 -19 14 -25 11 -7 -2
-18 0 -26 4 -11 7 -9 9 6 9 49 1 56 4 52 22 -4 15 -2 17 13 9 17 -9 30 -4 30
12 0 5 -4 6 -10 3 -5 -3 -10 -2 -10 4 0 5 10 11 23 13 17 2 22 9 20 29 -1 23
2 25 25 22 15 -2 21 0 15 3 -19 8 -16 24 5 25 16 1 16 2 0 6 -20 5 -20 5 -12
27 3 8 12 12 20 9 8 -3 14 1 14 10 0 8 6 18 13 20 7 3 5 6 -5 6 -23 1 -23 6 2
31 12 12 18 25 15 31 -4 5 -1 8 7 7 7 -2 12 5 12 15 -1 9 2 17 7 17 5 0 9 -11
9 -24 0 -32 13 -40 28 -16 9 14 8 19 -3 24 -8 3 -15 13 -15 23 0 14 2 15 9 4
7 -12 11 -12 23 0 13 12 12 15 -5 29 -18 15 -18 17 -2 30 16 13 17 13 11 -5
-4 -16 -1 -21 14 -22 11 -1 22 6 25 18 7 21 25 26 25 7 0 -6 3 -9 6 -5 4 3 13
-1 21 -9 15 -15 33 -11 33 8 0 5 -7 8 -15 4 -21 -8 -19 11 3 23 9 6 12 11 5
11 -6 0 -15 -5 -19 -12 -5 -7 -11 -5 -21 8 -12 16 -15 17 -23 4 -8 -12 -11
-13 -22 -2 -11 11 -10 13 2 10 9 -2 14 4 14 14 -1 14 4 17 25 12 14 -4 28 -8
30 -10 2 -2 13 4 24 13 18 17 20 17 38 -5 10 -13 23 -21 29 -17 7 4 1 15 -14
29 -28 23 -34 41 -12 33 7 -3 19 0 25 6 8 8 11 7 11 -5 0 -15 28 -33 37 -24 3
2 -2 15 -11 28 -10 15 -12 28 -6 38 8 13 14 11 37 -12 15 -16 22 -28 15 -28
-6 0 -12 -5 -12 -11 0 -8 5 -7 15 1 9 7 14 18 12 24 -2 6 8 16 22 23 19 8 21
12 9 12 -20 1 -24 16 -8 26 6 3 10 1 10 -6 0 -10 3 -10 12 -1 9 9 8 16 -5 30
-24 26 -21 39 3 17 11 -10 23 -15 27 -11 4 3 19 -6 35 -21 15 -15 28 -23 28
-17 -1 11 -25 44 -33 44 -10 0 -47 34 -47 43 0 4 5 5 10 2 6 -3 10 0 10 8 0 8
10 17 23 20 21 6 21 5 3 -8 -18 -13 -18 -15 -2 -21 9 -4 15 -13 12 -20 -4 -11
-2 -11 15 -1 16 10 21 9 29 -3 5 -8 12 -11 16 -7 4 4 -1 17 -12 28 l-19 22 33
-6 c19 -4 31 -3 27 2 -3 5 -1 12 5 16 5 3 10 2 10 -4 0 -6 7 -8 15 -5 8 4 13
10 10 14 -3 5 4 6 15 3 12 -3 20 0 20 7 0 7 6 10 14 7 8 -3 17 0 19 7 4 9 0
12 -12 9 -12 -3 -18 1 -18 12 0 10 6 14 14 10 8 -3 19 -5 23 -5 5 0 7 -13 5
-30 -2 -16 1 -32 6 -36 5 -3 8 -2 7 3 -4 15 13 53 22 48 5 -3 13 2 19 12 9 17
10 17 29 0 14 -13 22 -15 27 -7 4 6 4 14 1 17 -3 4 -6 1 -6 -6 0 -7 -5 -9 -11
-5 -7 4 -7 10 -1 16 10 10 62 -12 95 -40 21 -19 23 0 2 22 -8 8 -11 17 -6 20
5 3 11 -1 15 -9 3 -8 10 -15 17 -15 6 0 9 6 6 14 -9 23 3 26 39 11 19 -8 34
-11 34 -7 0 4 -13 13 -30 19 -16 6 -30 17 -30 24 0 8 6 7 18 -4 9 -9 24 -15
32 -14z m120 7 c0 -5 -7 -10 -15 -10 -8 0 -15 -4 -15 -10 0 -5 -5 -10 -12 -10
-6 0 -3 9 7 20 20 22 35 26 35 10z m250 6 c0 -3 -4 -8 -10 -11 -5 -3 -10 -1
-10 4 0 6 5 11 10 11 6 0 10 -2 10 -4z m-76 -15 c3 -5 -1 -12 -10 -15 -22 -9
-24 -8 -24 9 0 16 25 21 34 6z m273 -18 c0 -15 -19 -12 -24 3 -2 6 3 11 10 11
8 0 14 -6 14 -14z m-936 -26 c-10 -9 -11 -8 -5 6 3 10 9 15 12 12 3 -3 0 -11
-7 -18z m1009 -52 c-9 -11 -16 -13 -23 -6 -7 7 -6 15 3 26 9 11 16 13 23 6 7
-7 6 -15 -3 -26z m-1050 15 c0 -5 -7 -10 -15 -10 -8 0 -15 5 -15 10 0 6 7 10
15 10 8 0 15 -4 15 -10z m1249 -7 c-7 -10 -14 -20 -16 -22 -1 -2 -9 4 -18 12
-14 14 -12 16 12 20 16 2 30 5 32 6 2 0 -3 -7 -10 -16z m41 -31 c0 -5 -9 -17
-19 -26 -14 -13 -21 -14 -27 -5 -4 7 1 18 11 26 21 15 35 17 35 5z m150 -66
c0 -3 -4 -8 -10 -11 -5 -3 -10 -1 -10 4 0 6 5 11 10 11 6 0 10 -2 10 -4z
m-1734 -63 c-10 -10 -19 5 -10 18 6 11 8 11 12 0 2 -7 1 -15 -2 -18z m1694 17
c0 -5 -4 -10 -10 -10 -5 0 -10 5 -10 10 0 6 5 10 10 10 6 0 10 -4 10 -10z m47
-9 c12 12 40 2 48 -18 9 -24 -10 -37 -27 -19 -9 9 -19 11 -25 5 -5 -5 -13 4
-21 24 -9 27 -9 29 2 15 8 -12 16 -14 23 -7z m93 -1 c0 -5 -4 -10 -10 -10 -5
0 -10 5 -10 10 0 6 5 10 10 10 6 0 10 -4 10 -10z m-1888 -45 c0 -5 -5 -11 -10
-13 -5 -1 -9 4 -9 13 0 9 4 14 9 13 5 -2 10 -8 10 -13z m-65 -1 c-3 -3 -12 -4
-19 -1 -8 3 -5 6 6 6 11 1 17 -2 13 -5z m29 -21 c-10 -10 -19 5 -10 18 6 11 8
11 12 0 2 -7 1 -15 -2 -18z m2149 17 c-3 -5 -11 -10 -16 -10 -6 0 -7 5 -4 10
3 6 11 10 16 10 6 0 7 -4 4 -10z m40 0 c-3 -5 -11 -10 -16 -10 -6 0 -7 5 -4
10 3 6 11 10 16 10 6 0 7 -4 4 -10z m-210 -10 c4 -6 -5 -10 -19 -10 -14 0 -26
5 -26 10 0 6 9 10 19 10 11 0 23 -4 26 -10z m115 -5 c0 -8 -2 -15 -4 -15 -2 0
-6 7 -10 15 -3 8 -1 15 4 15 6 0 10 -7 10 -15z m-123 -32 c2 -6 -3 -13 -12
-16 -10 -5 -15 0 -15 14 0 21 21 22 27 2z m103 7 c0 -5 -5 -10 -11 -10 -5 0
-7 5 -4 10 3 6 8 10 11 10 2 0 4 -4 4 -10z m-26 -35 c-4 -8 -10 -12 -15 -9
-14 8 -10 24 6 24 9 0 12 -6 9 -15z m-2122 -27 c-7 -7 -12 -8 -12 -2 0 14 12
26 19 19 2 -3 -1 -11 -7 -17z m2158 -8 c-20 -13 -40 -13 -40 0 0 6 12 10 28
10 21 0 24 -2 12 -10z m-2260 -40 c0 -5 -2 -10 -4 -10 -3 0 -8 5 -11 10 -3 6
-1 10 4 10 6 0 11 -4 11 -10z m2340 -36 c0 -8 -7 -14 -15 -14 -15 0 -21 21 -9
33 10 9 24 -2 24 -19z m25 -14 c3 -5 1 -10 -4 -10 -6 0 -11 5 -11 10 0 6 2 10
4 10 3 0 8 -4 11 -10z m15 -30 c0 -13 -11 -13 -30 0 -12 8 -11 10 8 10 12 0
22 -4 22 -10z m80 -45 c14 -16 10 -18 -14 -9 -9 3 -16 10 -16 15 0 14 16 11
30 -6z m-135 -5 c3 -5 -1 -10 -10 -10 -9 0 -13 5 -10 10 3 6 8 10 10 10 2 0 7
-4 10 -10z m60 -21 c0 -8 6 -18 13 -22 25 -16 11 -27 -17 -13 -42 22 -59 72
-18 57 12 -5 22 -15 22 -22z m35 -9 c0 -5 -4 -10 -10 -10 -5 0 -10 5 -10 10 0
6 5 10 10 10 6 0 10 -4 10 -10z m37 -22 c-3 -8 -6 -5 -6 6 -1 11 2 17 5 13 3
-3 4 -12 1 -19z m-2537 -3 c0 -9 -9 -15 -22 -14 -17 1 -19 2 -5 6 9 2 17 9 17
14 0 5 2 9 5 9 3 0 5 -7 5 -15z m2610 -5 c0 -5 -2 -10 -4 -10 -3 0 -8 5 -11
10 -3 6 -1 10 4 10 6 0 11 -4 11 -10z m-17 -24 c4 -10 1 -13 -9 -9 -15 6 -19
23 -5 23 5 0 11 -7 14 -14z m-43 -70 c-7 -7 -10 1 -9 25 0 32 1 33 10 10 6
-16 6 -28 -1 -35z m-2570 40 c0 -3 -4 -8 -10 -11 -5 -3 -10 -1 -10 4 0 6 5 11
10 11 6 0 10 -2 10 -4z m2530 -102 c0 -8 -4 -14 -10 -14 -5 0 -10 2 -10 4 0 2
-3 12 -6 20 -5 12 -2 15 10 10 9 -3 16 -12 16 -20z m105 6 c3 -5 1 -10 -4 -10
-6 0 -11 5 -11 10 0 6 2 10 4 10 3 0 8 -4 11 -10z m-35 -62 c0 -13 -23 -5 -28
10 -2 7 2 10 12 6 9 -3 16 -11 16 -16z m-23 -24 c-3 -3 -12 -4 -19 -1 -8 3 -5
6 6 6 11 1 17 -2 13 -5z m323 -34 c0 -5 -2 -10 -4 -10 -3 0 -8 5 -11 10 -3 6
-1 10 4 10 6 0 11 -4 11 -10z m-3116 -28 c3 -5 -1 -9 -9 -9 -8 0 -12 4 -9 9 3
4 7 8 9 8 2 0 6 -4 9 -8z m3066 -38 c0 -9 -32 -33 -44 -34 -4 0 -5 8 -2 17 4
9 1 20 -6 24 -9 6 -9 11 1 23 11 13 15 12 32 -5 10 -10 19 -22 19 -25z m-3125
16 c-3 -5 -11 -10 -16 -10 -6 0 -7 5 -4 10 3 6 11 10 16 10 6 0 7 -4 4 -10z
m2951 -12 c5 -7 0 -9 -14 -6 -12 3 -23 1 -25 -6 -2 -6 -8 -7 -13 -3 -9 9 13
27 33 27 6 0 15 -5 19 -12z m92 -20 c20 -20 14 -28 -13 -16 -13 6 -22 15 -19
19 7 12 18 11 32 -3z m-93 -8 c-3 -5 -12 -10 -18 -10 -7 0 -6 4 3 10 19 12 23
12 15 0z m-5 -51 c0 -5 -4 -9 -10 -9 -5 0 -10 7 -10 16 0 8 5 12 10 9 6 -3 10
-10 10 -16z m120 5 c0 -14 -3 -14 -15 -4 -8 7 -15 14 -15 16 0 2 7 4 15 4 8 0
15 -7 15 -16z m-122 -102 c2 -7 -6 -12 -17 -12 -21 0 -27 11 -14 24 9 9 26 2
31 -12z m-2878 -73 c0 -4 -7 -6 -15 -3 -8 4 -15 10 -15 15 0 4 7 6 15 3 8 -4
15 -10 15 -15z m2858 -109 c-16 -22 -24 -27 -30 -18 -5 8 0 20 13 31 33 27 42
20 17 -13z m-2778 -34 c0 -3 -4 -8 -10 -11 -5 -3 -10 -1 -10 4 0 6 5 11 10 11
6 0 10 -2 10 -4z m2785 -6 c3 -5 -1 -10 -10 -10 -9 0 -13 5 -10 10 3 6 8 10
10 10 2 0 7 -4 10 -10z m49 -188 c3 -5 -1 -9 -9 -9 -8 0 -15 4 -15 9 0 4 4 8
9 8 6 0 12 -4 15 -8z m20 -67 c-7 -16 -24 -21 -24 -6 0 8 7 13 27 20 1 1 0 -6
-3 -14z m-2889 -15 c-3 -5 -13 -6 -21 -3 -12 4 -13 8 -3 14 15 9 32 2 24 -11z
m-28 -16 c-3 -3 -12 -4 -19 -1 -8 3 -5 6 6 6 11 1 17 -2 13 -5z m2974 -47
c-10 -9 -11 -8 -5 6 3 10 9 15 12 12 3 -3 0 -11 -7 -18z m79 -41 c0 -2 -7 -9
-15 -16 -12 -10 -15 -10 -15 4 0 9 7 16 15 16 8 0 15 -2 15 -4z m-3605 -16 c4
-6 10 -8 15 -5 24 15 120 -69 120 -104 0 -7 4 -10 9 -6 5 3 12 1 16 -5 3 -5 1
-10 -5 -10 -7 0 -10 -7 -6 -15 3 -8 1 -15 -4 -15 -6 0 -10 4 -10 9 0 5 -14 20
-32 32 -23 17 -30 19 -26 7 4 -10 -2 -20 -17 -28 -24 -13 -50 -6 -40 11 4 5 0
9 -8 9 -8 0 -25 9 -38 21 -20 17 -21 22 -9 30 13 8 13 10 0 20 -15 11 -14 10
53 -7 19 -5 18 -2 -10 26 -18 17 -33 33 -33 36 0 8 19 4 25 -6z m3565 -30 c0
-5 -5 -10 -11 -10 -5 0 -7 5 -4 10 3 6 8 10 11 10 2 0 4 -4 4 -10z m36 -14
c-4 -17 0 -25 16 -33 20 -9 20 -10 -9 -10 -17 0 -29 5 -28 11 9 33 18 56 22
56 3 0 3 -11 -1 -24z m25 1 c-10 -9 -11 -8 -5 6 3 10 9 15 12 12 3 -3 0 -11
-7 -18z m-2437 -33 c3 -8 2 -12 -4 -9 -6 3 -10 10 -10 16 0 14 7 11 14 -7z
m2506 -54 c0 -5 -5 -10 -11 -10 -5 0 -7 5 -4 10 3 6 8 10 11 10 2 0 4 -4 4
-10z m85 -1 c4 -6 17 -14 28 -18 21 -8 21 -8 -2 -21 -15 -7 -21 -8 -17 -1 4 6
0 11 -9 11 -9 0 -13 5 -10 10 3 6 -1 10 -10 10 -9 0 -13 5 -10 10 8 13 22 13
30 -1z m-3105 -14 c19 -23 8 -25 -14 -4 -11 11 -15 19 -9 19 6 0 16 -7 23 -15z
m2923 -17 c-7 -38 -13 -49 -13 -25 0 10 -4 17 -10 17 -14 0 -12 27 3 33 24 10
26 7 20 -25z m142 -8 c3 -5 1 -10 -4 -10 -6 0 -11 5 -11 10 0 6 2 10 4 10 3 0
8 -4 11 -10z m-3897 -39 c3 -32 2 -33 -25 -26 -43 10 -55 37 -25 54 29 18 47
8 50 -28z m948 -11 c2 -11 -1 -10 -11 4 -8 10 -18 15 -24 12 -5 -4 -13 -1 -17
5 -4 7 -3 9 3 6 6 -4 14 1 18 11 6 16 7 15 18 -3 6 -11 12 -27 13 -35z m44 40
c0 -5 -8 -10 -17 -10 -15 0 -16 2 -3 10 19 12 20 12 20 0z m30 -40 c0 -5 -4
-10 -10 -10 -5 0 -10 5 -10 10 0 6 5 10 10 10 6 0 10 -4 10 -10z m-140 -4 c0
-3 -4 -8 -10 -11 -5 -3 -10 -1 -10 4 0 6 5 11 10 11 6 0 10 -2 10 -4z m110 0
c0 -2 -7 -6 -15 -10 -8 -3 -15 -1 -15 4 0 6 7 10 15 10 8 0 15 -2 15 -4z m65
-25 c-3 -6 -11 -11 -16 -11 -5 0 -4 6 3 14 14 16 24 13 13 -3z m2719 13 c13
-5 13 -8 1 -20 -19 -19 -25 -18 -25 6 0 22 1 23 24 14z m-2764 -24 c0 -5 -4
-10 -10 -10 -5 0 -10 5 -10 10 0 6 5 10 10 10 6 0 10 -4 10 -10z m2703 -14
c23 -18 22 -25 -4 -19 -14 4 -20 1 -19 -8 5 -31 -1 -48 -13 -43 -15 5 -19 34
-5 34 4 0 8 11 8 25 0 28 7 30 33 11z m87 10 c0 -3 -4 -8 -10 -11 -5 -3 -10
-1 -10 4 0 6 5 11 10 11 6 0 10 -2 10 -4z m-1650 -68 c0 -6 -6 -5 -15 2 -8 7
-15 14 -15 16 0 2 7 1 15 -2 8 -4 15 -11 15 -16z m-1241 -2 c10 -12 8 -14 -14
-12 -14 2 -29 7 -33 11 -4 4 4 4 17 0 16 -5 21 -4 17 4 -10 16 -1 14 13 -3z
m1166 3 c10 -14 1 -21 -19 -13 -9 3 -13 10 -10 15 7 12 21 11 29 -2z m1660
-19 c3 -5 1 -10 -4 -10 -6 0 -11 5 -11 10 0 6 2 10 4 10 3 0 8 -4 11 -10z
m-2885 -4 c0 -2 -7 -7 -16 -10 -8 -3 -12 -2 -9 4 6 10 25 14 25 6z m1256 -16
c7 0 14 -9 17 -20 8 -30 -24 -26 -54 6 l-24 27 25 -6 c14 -4 30 -7 36 -7z
m120 -12 c3 -4 -1 -5 -10 -4 -8 1 -18 5 -22 8 -3 4 1 5 10 4 8 -1 18 -5 22 -8z
m-146 -49 c0 -6 -4 -7 -10 -4 -5 3 -10 11 -10 16 0 6 5 7 10 4 6 -3 10 -11 10
-16z m1640 11 c0 -5 -5 -10 -11 -10 -5 0 -7 5 -4 10 3 6 8 10 11 10 2 0 4 -4
4 -10z m-4405 -40 c3 -5 1 -10 -4 -10 -6 0 -11 5 -11 10 0 6 2 10 4 10 3 0 8
-4 11 -10z m-28 -15 c8 -8 19 -12 25 -9 6 4 8 -2 3 -16 -5 -14 -3 -20 3 -16 6
3 13 0 16 -6 3 -7 3 -2 0 12 l-5 25 19 -22 c11 -12 23 -19 28 -15 5 4 2 -1 -5
-11 -8 -9 -11 -21 -7 -25 4 -4 12 1 17 11 6 9 15 17 20 17 6 0 7 -4 4 -10 -3
-5 1 -10 9 -10 23 0 28 -17 11 -34 -14 -13 -13 -15 5 -13 11 1 22 7 24 14 3 7
11 13 18 13 9 0 9 -3 0 -12 -17 -17 -15 -29 6 -26 9 2 16 -2 15 -8 -1 -7 6
-10 16 -7 13 3 21 -4 30 -25 9 -20 19 -30 34 -29 12 0 31 -4 41 -8 15 -6 17
-5 11 5 -5 9 -4 11 4 6 9 -6 8 -14 -4 -32 -20 -30 -9 -31 18 -1 13 14 18 16
14 5 -8 -22 3 -30 21 -15 13 10 14 9 8 -1 -9 -15 32 -52 51 -45 9 4 11 0 7
-11 -6 -17 -68 -38 -87 -30 -7 3 -20 16 -29 29 -17 23 -17 24 2 22 11 -1 20
-8 21 -17 0 -9 3 -10 5 -3 3 6 17 10 32 7 25 -4 25 -3 7 8 -33 19 -112 18
-100 -2 3 -4 -4 -10 -15 -13 -24 -6 -17 -33 11 -40 10 -3 19 -10 19 -16 0 -8
-7 -8 -22 1 -13 7 -27 13 -33 13 -5 0 -9 10 -7 21 2 12 -4 24 -13 27 -8 4 -15
1 -15 -5 0 -9 -3 -9 -12 0 -7 7 -23 12 -36 12 -16 0 -22 4 -19 14 4 10 0 12
-14 9 -22 -6 -26 -23 -4 -23 8 0 15 -5 15 -11 0 -6 7 -8 18 -4 13 4 14 3 6 -5
-12 -12 -64 -21 -62 -11 2 18 -4 28 -17 28 -8 0 -12 -4 -9 -9 3 -4 3 -8 0 -8
-2 0 -11 -3 -20 -6 -14 -5 -14 -3 0 26 9 17 13 34 10 37 -3 3 -8 -2 -11 -11
-3 -9 -7 -23 -10 -31 -2 -8 -9 -15 -15 -15 -6 0 -8 5 -5 10 3 6 2 10 -3 10
-14 0 -33 -26 -25 -33 5 -6 -28 -12 -49 -8 -5 0 -8 -5 -8 -13 0 -8 -7 -16 -14
-19 -10 -4 -13 -1 -9 9 6 16 -5 18 -26 5 -8 -5 -10 -14 -6 -21 6 -9 4 -11 -5
-5 -10 6 -12 4 -7 -9 5 -12 3 -16 -5 -12 -7 3 -21 9 -31 12 -10 4 -16 12 -13
19 3 8 -2 16 -9 19 -8 3 -12 12 -9 21 4 10 0 15 -15 15 -12 0 -21 -4 -21 -10
0 -5 5 -10 10 -10 6 0 10 -8 10 -17 0 -14 -4 -13 -21 6 -24 26 -16 42 24 44
21 2 23 5 16 20 -5 9 -14 17 -19 17 -13 0 -4 70 13 103 8 16 18 28 21 27 4 -1
12 1 19 4 9 5 9 7 0 12 -14 6 -4 31 24 59 13 13 13 19 4 25 -9 5 -4 8 13 8 14
0 26 -4 26 -9 0 -5 -4 -9 -10 -9 -5 0 -10 -4 -10 -10 0 -5 5 -10 11 -10 13 0
55 51 52 62 -5 13 7 9 24 -7z m93 -5 c0 -5 -2 -10 -4 -10 -3 0 -8 5 -11 10 -3
6 -1 10 4 10 6 0 11 -4 11 -10z m4427 -6 c-3 -3 -12 -4 -19 -1 -8 3 -5 6 6 6
11 1 17 -2 13 -5z m-170 -44 c2 -20 -8 -26 -20 -13 -4 3 -2 12 4 20 15 17 14
17 16 -7z m98 10 c-3 -5 -11 -10 -16 -10 -6 0 -7 5 -4 10 3 6 11 10 16 10 6 0
7 -4 4 -10z m-41 -28 c2 -4 -4 -9 -15 -9 -10 -1 -19 2 -19 8 0 11 27 12 34 1z
m-1793 -20 c-7 -2 -18 1 -23 6 -8 8 -4 9 13 5 13 -4 18 -8 10 -11z m1743 -69
c8 -19 -15 -38 -25 -21 -8 13 -1 38 11 38 4 0 11 -8 14 -17z m-4069 -3 c-3 -5
-12 -10 -18 -10 -7 0 -6 4 3 10 19 12 23 12 15 0z m4015 -19 c0 -6 -4 -13 -10
-16 -5 -3 -10 1 -10 9 0 9 5 16 10 16 6 0 10 -4 10 -9z m-4523 -42 c2 -17 -1
-18 -12 -9 -8 7 -12 16 -9 21 9 16 20 10 21 -12z m4538 11 c3 -5 -1 -10 -10
-10 -9 0 -13 5 -10 10 3 6 8 10 10 10 2 0 7 -4 10 -10z m-3870 -9 c3 -5 0 -13
-6 -17 -7 -4 -9 -3 -5 4 3 5 0 13 -6 15 -9 4 -10 6 -1 6 6 1 14 -3 18 -8z
m-680 -31 c10 -11 16 -20 13 -20 -3 0 -13 9 -23 20 -10 11 -16 20 -13 20 3 0
13 -9 23 -20z m675 -12 c0 -6 -6 -5 -15 2 -8 7 -15 14 -15 16 0 2 7 1 15 -2 8
-4 15 -11 15 -16z m30 12 c0 -5 -5 -10 -11 -10 -5 0 -7 5 -4 10 3 6 8 10 11
10 2 0 4 -4 4 -10z m3828 -28 c-10 -2 -18 -8 -18 -13 0 -6 -5 -7 -10 -4 -17
11 9 35 28 27 16 -6 16 -7 0 -10z m-4238 -36 c0 -3 -4 -8 -10 -11 -5 -3 -10
-1 -10 4 0 6 5 11 10 11 6 0 10 -2 10 -4z m40 -4 c0 -5 -7 -9 -15 -9 -8 0 -12
4 -9 9 3 4 9 8 15 8 5 0 9 -4 9 -8z m2295 -17 c97 -14 264 -96 343 -169 44
-41 102 -120 102 -139 0 -28 -19 -29 -47 -3 -15 15 -32 26 -37 26 -5 0 -20 10
-33 22 -21 20 -23 20 -23 3 0 -16 -2 -16 -17 -4 -27 21 -61 39 -76 39 -7 0
-19 9 -27 20 -8 11 -19 20 -26 20 -16 0 -45 35 -37 45 5 4 -2 4 -14 1 -18 -6
-22 -4 -17 8 6 15 -41 46 -71 46 -8 0 -15 5 -15 12 0 6 -3 9 -6 5 -4 -3 -23 1
-43 9 -39 16 -82 25 -119 25 -13 -1 -20 4 -17 9 3 6 1 10 -5 10 -6 0 -8 5 -4
12 6 9 9 9 12 0 5 -16 22 -15 22 1 0 13 72 14 155 2z m1915 -11 c0 -2 -7 -4
-15 -4 -8 0 -15 4 -15 10 0 5 7 7 15 4 8 -4 15 -8 15 -10z m-4496 -18 c12 5
15 2 10 -9 -3 -9 -12 -13 -21 -10 -10 4 -14 2 -9 -5 3 -6 2 -13 -4 -17 -5 -3
-10 -2 -10 4 0 6 -7 8 -15 5 -19 -8 -19 3 0 23 8 8 13 20 9 26 -3 7 1 4 9 -6
9 -10 21 -15 31 -11z m4429 -30 c4 -10 0 -12 -15 -8 -15 4 -17 7 -6 13 17 11
15 11 21 -5z m-4515 -51 c-3 -3 -9 2 -12 12 -6 14 -5 15 5 6 7 -7 10 -15 7
-18z m2132 -35 c0 -5 -5 -10 -11 -10 -5 0 -7 5 -4 10 3 6 8 10 11 10 2 0 4 -4
4 -10z m20 -30 c0 -5 -4 -10 -10 -10 -5 0 -10 5 -10 10 0 6 5 10 10 10 6 0 10
-4 10 -10z m2360 0 c0 -5 -5 -10 -11 -10 -5 0 -7 5 -4 10 3 6 8 10 11 10 2 0
4 -4 4 -10z m-1310 -16 c0 -10 -6 -14 -15 -10 -8 3 -15 0 -15 -6 0 -6 -3 -8
-6 -5 -8 8 14 37 27 37 5 0 9 -7 9 -16z m57 -18 c0 -8 -6 -12 -15 -9 -11 5
-11 7 0 14 7 5 13 9 14 9 0 0 1 -6 1 -14z m33 10 c0 -3 -4 -8 -10 -11 -5 -3
-10 -1 -10 4 0 6 5 11 10 11 6 0 10 -2 10 -4z m-680 -52 c0 -8 -5 -12 -10 -9
-6 4 -8 11 -5 16 9 14 15 11 15 -7z m-1900 -120 c0 -8 -4 -12 -10 -9 -5 3 -10
13 -10 21 0 8 5 12 10 9 6 -3 10 -13 10 -21z m3815 6 c-3 -5 -12 -10 -18 -10
-7 0 -6 4 3 10 19 12 23 12 15 0z m-1708 -126 c-3 -3 -12 -4 -19 -1 -8 3 -5 6
6 6 11 1 17 -2 13 -5z m853 -3 c0 -15 -17 -22 -36 -14 -16 6 -16 7 2 14 27 11
34 10 34 0z m765 -71 c3 -5 2 -10 -4 -10 -5 0 -13 5 -16 10 -3 6 -2 10 4 10 5
0 13 -4 16 -10z m-3535 -66 c0 -8 -4 -12 -10 -9 -5 3 -10 10 -10 16 0 5 5 9
10 9 6 0 10 -7 10 -16z m3480 -38 c0 -3 -4 -8 -10 -11 -5 -3 -10 -1 -10 4 0 6
5 11 10 11 6 0 10 -2 10 -4z m-1850 -40 c22 -27 -5 -17 -31 10 -21 24 -22 26
-3 16 11 -6 26 -18 34 -26z m1798 -38 c-2 -5 -8 -9 -13 -9 -5 0 -11 4 -13 9
-1 5 4 9 13 9 9 0 14 -4 13 -9z m-3898 -379 c0 -5 -6 -7 -12 -3 -9 6 -9 3 1
-9 16 -20 8 -49 -12 -41 -16 6 -18 34 -4 52 12 15 27 16 27 1z m1484 -5 c24
-9 19 -21 -8 -21 -17 0 -23 4 -19 13 6 16 6 16 27 8z m-44 -14 c0 -5 -5 -10
-11 -10 -5 0 -7 5 -4 10 3 6 8 10 11 10 2 0 4 -4 4 -10z m90 -10 c0 -5 -4 -10
-10 -10 -5 0 -10 5 -10 10 0 6 5 10 10 10 6 0 10 -4 10 -10z m-203 -22 c2 -17
0 -19 -7 -8 -5 8 -6 18 -4 22 8 12 10 10 11 -14z m73 12 c0 -5 -2 -10 -4 -10
-3 0 -8 5 -11 10 -3 6 -1 10 4 10 6 0 11 -4 11 -10z m176 -38 c2 -8 8 -18 14
-22 7 -4 2 -13 -14 -24 -14 -9 -26 -12 -26 -6 0 6 7 13 15 16 12 5 13 9 3 21
-10 13 -13 12 -20 -7 -6 -17 -11 -19 -28 -10 -11 6 -25 8 -30 5 -6 -3 -10 -2
-10 3 0 19 14 21 37 7 13 -9 23 -11 23 -6 0 6 -9 15 -20 21 -11 6 -20 15 -20
21 0 6 7 3 16 -5 18 -18 24 -19 42 -7 11 7 11 9 -2 14 -9 4 -16 11 -16 17 0
16 34 -20 36 -38z m-1461 -27 c2 -25 -1 -42 -6 -39 -5 3 -9 0 -9 -5 0 -6 -5
-11 -10 -11 -6 0 -3 12 7 28 17 25 17 26 0 13 -15 -12 -17 -11 -17 13 0 25 20
59 29 50 2 -2 5 -24 6 -49z m1263 -26 c-12 -34 -23 -38 -25 -8 -1 11 5 23 12
26 13 4 13 8 0 26 -8 12 -15 26 -15 32 0 5 9 -3 19 -19 15 -23 17 -34 9 -57z
m42 65 c0 -8 -5 -12 -10 -9 -6 4 -8 11 -5 16 9 14 15 11 15 -7z m65 5 c4 -6 4
-13 0 -17 -4 -4 -10 -1 -12 6 -3 6 -9 10 -14 6 -5 -3 -9 0 -9 5 0 14 27 14 35
0z m-1054 -24 c4 3 9 -1 11 -7 3 -9 26 -13 69 -13 35 0 70 -4 78 -9 10 -6 12
-5 7 2 -4 7 -1 12 8 12 8 0 16 -5 18 -12 3 -7 18 -13 34 -13 20 -1 28 -5 26
-15 -3 -12 -1 -13 9 -2 17 16 30 15 23 -2 -4 -11 0 -13 16 -9 14 4 26 -1 35
-13 8 -11 15 -15 15 -10 0 5 9 1 20 -9 11 -10 23 -15 27 -12 3 4 12 2 20 -4
10 -9 13 -8 13 1 0 9 4 9 13 3 18 -15 70 -26 62 -13 -10 15 4 12 22 -6 12 -11
18 -12 23 -4 5 9 10 9 14 1 4 -6 19 -8 35 -5 16 4 32 1 35 -5 4 -6 18 -8 31
-5 12 3 26 1 30 -6 5 -8 11 -8 21 1 12 10 15 10 12 -2 -2 -8 7 -15 20 -17 15
-2 22 -9 18 -18 -3 -8 4 -19 17 -25 19 -11 21 -10 9 3 -10 13 -10 17 0 20 10
4 10 8 -1 21 -8 11 -9 17 -3 17 6 0 21 -13 33 -30 12 -16 26 -27 31 -24 4 3 8
-2 8 -11 0 -9 4 -14 9 -11 4 3 17 -4 27 -16 14 -16 15 -20 4 -16 -8 3 -26 8
-40 12 -24 7 -24 6 5 -19 49 -41 75 -69 70 -73 -2 -3 7 -19 20 -37 14 -17 25
-38 25 -46 -1 -10 -4 -9 -11 3 -5 10 -20 23 -32 29 -13 7 -6 -4 18 -28 22 -22
47 -48 55 -58 14 -16 13 -17 -8 -11 -28 9 -28 5 2 -58 13 -28 27 -62 31 -76 7
-24 7 -24 -12 -7 -11 9 -28 17 -39 17 -15 0 -16 -2 -5 -9 7 -5 10 -14 7 -20
-4 -6 -12 -9 -17 -6 -5 3 -7 0 -4 -7 4 -9 -4 -13 -27 -12 -55 2 -58 3 -70 29
-8 19 -15 22 -28 15 -10 -5 -20 -6 -24 -3 -3 3 -6 -1 -6 -10 0 -13 -10 -9 -46
18 -25 19 -52 35 -60 35 -8 0 -22 9 -31 20 -10 11 -23 20 -30 20 -7 0 -13 4
-13 9 0 8 -34 21 -46 18 -3 -1 -10 5 -15 15 -5 9 -37 32 -72 52 -34 19 -77 49
-96 66 -18 16 -38 30 -43 30 -5 0 -19 10 -31 23 -12 13 -58 51 -102 85 -44 34
-89 69 -99 79 -11 10 -36 29 -57 43 -62 43 -139 112 -139 126 0 9 8 10 31 4
18 -5 35 -7 40 -5z m889 -10 c0 -8 -4 -15 -10 -15 -5 0 -10 7 -10 15 0 8 5 15
10 15 6 0 10 -7 10 -15z m138 -26 c0 -18 6 -37 11 -42 16 -16 13 -31 -2 -18
-8 6 -17 7 -21 3 -4 -4 -6 8 -3 26 4 23 1 32 -9 32 -27 0 -12 25 17 29 3 1 6
-13 7 -30z m-1578 7 c0 -3 -4 -8 -10 -11 -5 -3 -10 -1 -10 4 0 6 5 11 10 11 6
0 10 -2 10 -4z m1400 -4 c0 -5 -7 -9 -15 -9 -8 0 -12 4 -9 9 3 4 9 8 15 8 5 0
9 -4 9 -8z m230 -12 c0 -5 -4 -10 -10 -10 -5 0 -10 5 -10 10 0 6 5 10 10 10 6
0 10 -4 10 -10z m-185 -20 c3 -5 1 -10 -4 -10 -6 0 -11 5 -11 10 0 6 2 10 4
10 3 0 8 -4 11 -10z m225 -12 c0 -13 -23 -5 -28 10 -2 7 2 10 12 6 9 -3 16
-11 16 -16z m-133 -14 c-3 -3 -12 -4 -19 -1 -8 3 -5 6 6 6 11 1 17 -2 13 -5z
m-1452 -25 c-4 -5 -1 -9 6 -9 8 0 9 -3 0 -13 -6 -8 -8 -17 -4 -20 3 -4 0 -7
-8 -7 -16 0 -39 19 -39 31 0 14 32 39 41 33 5 -3 7 -10 4 -15z m1575 11 c0 -5
-4 -10 -10 -10 -5 0 -10 5 -10 10 0 6 5 10 10 10 6 0 10 -4 10 -10z m50 0 c0
-5 -2 -10 -4 -10 -3 0 -8 5 -11 10 -3 6 -1 10 4 10 6 0 11 -4 11 -10z m80 -29
c-1 -14 -3 -13 -15 3 -10 13 -15 15 -15 6 0 -7 -3 -11 -6 -7 -3 3 -3 10 0 16
10 15 36 2 36 -18z m-195 9 c3 -5 -1 -10 -9 -10 -9 0 -16 5 -16 10 0 6 4 10 9
10 6 0 13 -4 16 -10z m-205 -10 c0 -5 -2 -10 -4 -10 -3 0 -8 5 -11 10 -3 6 -1
10 4 10 6 0 11 -4 11 -10z m64 -4 c-21 -15 -30 -14 -19 3 3 6 14 11 23 11 13
0 13 -2 -4 -14z m-25 -42 c18 -9 30 -18 28 -20 -5 -5 -77 24 -77 31 0 9 16 5
49 -11z m-1197 -75 c23 -24 37 -48 34 -56 -4 -8 -6 -18 -6 -23 0 -4 -14 -10
-32 -12 -27 -4 -38 1 -65 29 -18 18 -33 37 -33 42 0 9 49 61 58 61 3 0 23 -19
44 -41z m3333 21 c-13 -5 -15 -9 -6 -14 9 -6 6 -13 -10 -27 -27 -23 -29 -23
-29 -4 0 8 7 15 16 15 8 0 12 5 9 10 -9 14 14 42 28 33 6 -4 3 -9 -8 -13z
m772 -67 c-4 -3 1 -12 11 -19 16 -11 16 -13 -2 -32 -10 -12 -16 -25 -13 -29 3
-5 -3 -10 -14 -10 -11 -1 -17 2 -14 8 4 5 2 9 -3 9 -5 0 -8 8 -7 18 2 25 24
62 37 62 6 0 8 -3 5 -7z m-4054 -33 c-3 -12 -8 -19 -11 -16 -5 6 5 36 12 36 2
0 2 -9 -1 -20z m199 -61 c24 -10 39 -18 35 -18 -4 -1 4 -12 19 -26 15 -14 23
-25 19 -25 -4 0 -3 -6 3 -13 8 -9 7 -20 -3 -40 -8 -15 -10 -27 -4 -27 15 0 10
-20 -7 -27 -32 -12 -144 53 -144 84 0 7 -4 13 -8 13 -18 0 -1 81 22 106 8 8
13 9 18 1 3 -6 26 -19 50 -28z m2976 19 c-2 -6 -10 -14 -16 -16 -7 -2 -10 2
-6 12 7 18 28 22 22 4z m-28 -32 c0 -2 -7 -9 -15 -16 -12 -10 -15 -10 -15 4 0
9 7 16 15 16 8 0 15 -2 15 -4z m-40 -16 c0 -5 -2 -10 -4 -10 -3 0 -8 5 -11 10
-3 6 -1 10 4 10 6 0 11 -4 11 -10z m-3290 -65 c-7 -9 -15 -13 -18 -10 -3 2 1
11 8 20 7 9 15 13 18 10 3 -2 -1 -11 -8 -20z m4374 0 c23 -23 28 -49 18 -93
-5 -22 -7 -44 -3 -50 12 -19 251 27 251 48 0 4 14 13 30 20 17 7 34 18 38 24
11 17 45 32 65 28 18 -4 23 -27 8 -36 -5 -3 -7 -15 -4 -26 4 -17 14 -20 54
-20 92 0 254 -21 319 -42 167 -53 333 -161 477 -311 97 -101 153 -207 202
-381 60 -213 82 -362 106 -731 3 -49 8 -97 10 -105 2 -8 7 -44 10 -80 3 -36 7
-85 10 -110 2 -25 11 -109 20 -188 9 -78 18 -170 21 -205 8 -97 12 -135 29
-241 8 -54 12 -102 9 -107 -3 -5 0 -9 7 -9 8 0 10 -17 6 -55 -3 -30 -1 -53 3
-50 10 6 25 -63 16 -72 -3 -3 -2 -11 3 -17 14 -18 23 -74 13 -80 -12 -7 -3
-46 10 -46 6 0 8 -10 5 -22 -4 -12 -2 -27 3 -33 14 -17 38 -133 32 -160 -2
-15 0 -25 8 -25 6 0 10 -6 7 -12 -2 -7 0 -22 6 -33 6 -11 12 -29 13 -40 1 -11
5 -36 9 -56 4 -23 2 -40 -4 -44 -15 -9 -14 -28 2 -22 7 2 17 -10 23 -27 12
-35 7 -56 -8 -35 -7 10 -8 8 -2 -6 4 -11 8 -31 10 -45 1 -14 3 -27 3 -29 1 -2
8 2 16 9 17 14 21 0 5 -16 -9 -9 -5 -35 17 -94 3 -8 8 -24 10 -34 2 -11 8 -24
13 -31 12 -14 11 -115 -1 -115 -5 0 0 -13 11 -28 11 -15 23 -39 25 -53 3 -15
12 -42 20 -61 8 -20 12 -38 9 -41 -6 -6 15 -75 29 -94 6 -9 5 -13 -2 -13 -6 0
-11 5 -11 11 0 5 -5 7 -10 4 -6 -4 -2 -17 10 -33 14 -17 19 -34 15 -49 -4 -16
-1 -23 10 -23 8 0 15 -5 15 -11 0 -6 -9 -9 -19 -6 -12 3 -22 -1 -25 -10 -5
-11 -2 -13 10 -9 13 5 15 2 11 -15 -4 -15 -2 -19 9 -15 17 6 19 -5 3 -21 -8
-8 -6 -18 6 -36 21 -33 27 -207 8 -244 -11 -22 -11 -24 5 -21 9 2 16 8 16 14
-1 5 7 18 19 29 17 17 19 17 14 3 -3 -10 -2 -20 3 -23 16 -10 12 -25 -6 -25
-14 0 -14 -2 -3 -16 7 -9 14 -23 15 -32 1 -10 5 -25 9 -35 6 -14 3 -16 -11
-11 -18 5 -18 5 -1 -6 21 -13 22 -30 3 -30 -11 0 -12 -5 -3 -25 7 -14 18 -25
25 -25 6 0 12 -4 12 -10 0 -5 -5 -10 -10 -10 -7 0 -7 -6 0 -20 9 -16 8 -20 -6
-20 -16 0 -16 -1 0 -19 17 -19 17 -20 -4 -31 -17 -9 -19 -14 -9 -26 9 -11 15
-12 25 -3 11 9 11 4 -1 -30 -8 -23 -12 -48 -9 -55 6 -17 32 -28 44 -21 5 3 11
1 15 -5 3 -5 1 -10 -4 -10 -19 0 -12 -17 9 -23 12 -3 20 -14 20 -27 0 -17 -4
-20 -20 -15 -24 8 -24 5 -6 -30 10 -18 16 -22 20 -13 3 7 4 3 2 -9 -2 -14 1
-20 8 -17 7 3 13 -2 13 -11 0 -8 -6 -15 -14 -15 -17 0 -17 -20 0 -20 6 0 21
-8 32 -17 16 -13 17 -15 3 -10 -12 4 -18 1 -18 -8 0 -14 -12 -19 -32 -16 -5 0
-8 -4 -8 -9 0 -15 27 -12 44 5 19 19 30 19 23 1 -4 -9 -1 -13 6 -10 7 2 13 -4
14 -16 2 -23 -7 -26 -25 -8 -9 9 -12 9 -12 0 0 -6 6 -15 14 -19 18 -11 31 -53
16 -53 -6 0 -17 -6 -25 -13 -11 -11 -10 -16 7 -26 11 -7 18 -15 15 -18 -3 -2
3 -13 14 -24 10 -10 19 -30 19 -44 0 -17 5 -25 18 -25 21 0 46 -36 32 -45 -6
-3 -10 0 -10 7 0 8 -9 14 -20 15 -19 2 -19 0 -4 -29 11 -21 18 -27 24 -18 10
17 22 -3 14 -24 -3 -9 -1 -23 6 -31 7 -8 10 -23 7 -34 -2 -10 -1 -25 3 -32 5
-7 4 -22 0 -35 -7 -18 -5 -23 16 -27 13 -2 24 0 24 4 0 5 -4 9 -10 9 -5 0 -10
5 -10 11 0 6 6 9 13 6 14 -4 17 -136 2 -134 -5 1 -10 -5 -11 -13 0 -8 -2 -20
-2 -27 -1 -7 -9 -10 -19 -6 -16 6 -16 5 -4 -10 12 -16 8 -22 -12 -18 -5 1 -6
-3 -2 -9 3 -5 11 -10 17 -10 5 0 23 -9 39 -21 20 -14 27 -16 23 -6 -8 23 14
30 25 8 8 -14 7 -20 -4 -25 -10 -4 -14 -13 -10 -29 5 -19 0 -25 -29 -37 -28
-11 -33 -16 -24 -27 9 -11 13 -12 19 -1 8 13 12 14 45 17 9 1 12 6 8 14 -6 9
-4 9 8 -1 8 -7 16 -23 16 -37 0 -20 -3 -23 -19 -15 -28 15 -31 12 -24 -22 11
-57 16 -68 26 -63 5 4 16 -1 25 -9 9 -9 20 -14 25 -11 5 4 9 1 9 -5 0 -7 -8
-9 -21 -5 -19 6 -20 4 -14 -25 5 -23 4 -30 -4 -26 -6 4 -9 11 -6 16 3 5 1 11
-5 15 -5 3 -10 2 -10 -3 0 -6 -13 -15 -29 -20 -23 -8 -28 -15 -24 -31 6 -22
21 -37 29 -28 3 3 1 14 -5 25 -9 18 -8 19 12 14 12 -3 28 -12 35 -19 17 -17 1
-17 -17 0 -11 10 -13 9 -9 -3 17 -50 19 -60 9 -60 -6 0 -11 4 -11 9 0 4 -9 8
-20 7 -22 -1 -28 -20 -7 -22 32 -3 37 -5 37 -16 0 -9 -3 -9 -12 0 -19 19 -25
14 -25 -17 0 -26 3 -29 20 -20 10 6 21 8 25 5 3 -3 0 -6 -7 -6 -7 0 -9 -4 -6
-10 3 -6 -1 -7 -10 -4 -12 5 -14 2 -8 -12 7 -18 6 -18 -11 -2 -23 24 -35 23
-29 -3 3 -11 1 -30 -5 -42 -5 -12 -14 -31 -18 -42 -7 -16 -9 -12 -12 20 l-4
40 -12 -30 c-14 -31 -5 -55 19 -55 7 0 18 -7 25 -15 8 -9 8 -15 2 -15 -6 0
-12 4 -14 10 -2 5 -9 6 -17 1 -19 -12 -3 -34 20 -28 14 4 19 0 18 -16 0 -12
-3 -16 -6 -9 -2 6 -13 12 -24 12 -10 0 -19 4 -19 9 0 5 -10 13 -21 16 -27 9
-43 -14 -25 -35 21 -25 31 -44 18 -36 -7 4 -12 2 -12 -4 0 -6 -5 -8 -10 -5
-11 7 -42 -19 -33 -29 9 -9 12 -77 3 -71 -12 8 -7 -48 5 -57 5 -4 6 -10 2 -15
-5 -4 -12 -1 -16 6 -6 9 -11 10 -15 3 -4 -6 -13 -9 -21 -5 -9 3 -15 -1 -15
-11 0 -10 -6 -13 -16 -9 -12 4 -15 0 -12 -18 2 -15 -2 -23 -9 -21 -7 1 -13 -2
-13 -8 0 -5 -5 -10 -11 -10 -6 0 -9 7 -6 14 4 9 -2 17 -14 21 -25 8 -39 -2
-15 -11 24 -9 20 -34 -6 -34 -19 0 -20 -2 -8 -10 21 -14 43 -12 34 2 -5 8 -2
9 9 5 10 -3 17 -2 17 4 0 6 5 7 10 4 13 -8 -13 -35 -34 -35 -8 0 -18 -5 -21
-11 -5 -6 -12 -4 -20 8 -13 17 -14 16 -8 -5 3 -12 9 -25 14 -28 5 -3 9 -10 9
-15 0 -6 -4 -7 -10 -4 -5 3 -11 -4 -11 -17 -1 -17 -3 -18 -6 -5 -5 18 -18 23
-26 10 -2 -5 -3 -3 -1 3 3 13 -15 34 -29 34 -4 0 -6 -4 -2 -9 3 -5 1 -12 -3
-15 -5 -3 -7 -17 -4 -31 2 -14 1 -25 -4 -24 -22 4 -26 -2 -12 -18 22 -26 27
-57 10 -72 -12 -12 -15 -12 -23 0 -5 8 -9 19 -9 25 0 17 -24 64 -33 64 -5 0
-5 -5 -1 -11 3 -6 0 -16 -7 -21 -8 -5 -10 -11 -4 -14 23 -10 33 -20 40 -43 4
-15 3 -21 -3 -17 -6 4 -8 -2 -4 -16 3 -13 1 -19 -5 -15 -6 4 -19 0 -29 -9 -18
-15 -18 -15 1 -6 29 13 45 4 45 -25 0 -21 -2 -23 -15 -13 -8 7 -12 17 -9 22 3
5 -3 4 -15 -4 -23 -14 -29 -33 -7 -25 7 3 19 0 25 -6 15 -15 14 -30 -1 -21
-10 6 -10 4 0 -7 18 -20 15 -39 -8 -39 -11 0 -20 5 -20 10 0 6 5 10 12 10 6 0
9 3 5 6 -3 3 -16 -1 -29 -10 l-23 -16 22 -6 c13 -4 20 -11 16 -20 -4 -11 -10
-11 -26 -3 -17 10 -19 9 -14 -5 3 -8 2 -18 -4 -22 -13 -8 -1 -45 20 -61 14
-11 14 -12 1 -13 -8 0 -28 -14 -43 -30 -18 -17 -36 -27 -45 -23 -11 3 -9 -3 7
-16 25 -22 23 -51 -4 -51 -14 0 -14 -3 0 -30 18 -34 18 -40 5 -40 -6 0 -9 3
-9 8 3 20 -3 30 -28 41 -25 10 -26 10 -10 -3 10 -7 22 -28 27 -45 7 -26 5 -33
-11 -41 -10 -6 -19 -7 -19 -3 0 4 -5 1 -10 -7 -7 -11 -10 -11 -10 -2 0 26 -19
1 -19 -26 -3 -90 -5 -99 -23 -94 -10 2 -18 -1 -18 -7 0 -7 4 -10 9 -6 16 9 24
-15 10 -31 -10 -13 -14 -13 -30 2 -10 9 -23 13 -29 9 -8 -5 -7 -10 3 -18 8 -7
18 -22 22 -34 5 -19 2 -23 -16 -23 -16 0 -19 3 -11 13 7 8 6 16 -4 25 -15 13
-18 9 -14 -22 1 -10 -4 -22 -10 -26 -9 -6 -9 -13 -1 -28 7 -14 8 -23 1 -27 -5
-3 -10 0 -10 7 -1 9 -5 7 -14 -5 -9 -11 -23 -16 -42 -13 -16 2 -21 1 -11 -1
23 -6 22 -30 -3 -43 -15 -8 -19 -17 -15 -31 6 -19 5 -20 -15 -9 -12 6 -19 18
-16 25 2 7 -1 18 -8 24 -10 9 -13 6 -10 -14 1 -14 8 -33 16 -42 11 -14 11 -16
-2 -8 -8 4 -23 15 -32 23 -20 17 -23 10 -8 -19 6 -10 8 -19 5 -19 -12 0 -51
26 -63 43 -18 24 -32 13 -33 -26 l0 -32 -16 33 c-9 17 -21 32 -25 32 -5 0 -6
-5 -3 -10 3 -6 2 -10 -4 -10 -5 0 -11 6 -14 12 -2 7 -2 2 0 -10 3 -17 0 -22
-9 -19 -7 2 -12 10 -10 16 1 6 -2 11 -8 11 -5 0 -10 -7 -10 -15 0 -8 0 -17 0
-20 0 -3 3 -5 6 -4 8 1 24 -22 24 -34 0 -5 -14 1 -30 13 -24 17 -28 25 -20 35
9 10 6 16 -10 25 -12 6 -24 9 -28 6 -3 -3 0 -6 6 -6 7 0 12 -9 12 -19 0 -18
-2 -19 -30 -5 -16 9 -34 23 -40 32 -5 10 -10 12 -10 4 0 -7 13 -25 28 -40 16
-15 26 -26 24 -25 -3 1 -12 -7 -22 -19 -18 -23 -45 -16 -36 8 3 8 2 14 -2 14
-10 0 -32 -51 -27 -61 11 -18 -37 -20 -56 -3 -16 15 -22 16 -28 5 -6 -8 -14
-10 -22 -5 -8 4 1 -6 19 -23 34 -33 46 -58 12 -28 -11 10 -23 15 -27 11 -4 -3
-13 6 -20 21 -12 26 -12 26 -7 3 5 -22 4 -23 -7 -10 -8 9 -22 22 -31 29 -16
12 -18 11 -18 -13 0 -15 4 -25 9 -22 5 3 15 -2 22 -11 15 -18 15 -18 -40 4
-11 5 -11 2 -1 -16 14 -27 8 -38 -10 -16 -7 8 -22 15 -33 15 -16 0 -18 -3 -9
-12 14 -14 16 -28 3 -28 -5 0 -13 10 -16 23 -4 12 -21 35 -37 50 l-30 28 7
-28 c3 -15 12 -31 18 -35 7 -5 8 -8 2 -8 -17 0 -35 22 -35 44 0 16 -2 18 -9 7
-7 -11 -13 -8 -26 13 -10 14 -23 26 -29 26 -13 0 -42 52 -52 93 -3 15 -10 30
-15 33 -5 3 -9 10 -9 15 0 6 5 7 10 4 6 -3 10 -1 10 4 0 20 20 11 30 -13 11
-29 30 -43 30 -22 0 9 -9 25 -20 36 -11 11 -20 26 -20 34 0 8 -7 22 -16 31
-22 21 -56 114 -55 146 1 15 -6 32 -15 39 -8 8 -21 28 -29 47 -8 18 -19 33
-24 33 -6 0 -11 8 -10 18 0 10 3 12 6 5 9 -23 20 -13 18 17 -1 16 -8 37 -16
46 -9 12 -10 15 -1 10 17 -10 15 -2 -9 46 -13 25 -18 49 -14 65 3 14 2 22 -3
19 -6 -3 -9 2 -8 11 0 9 -5 18 -13 21 -9 3 -11 0 -6 -8 6 -9 4 -11 -4 -6 -7 5
-10 14 -7 22 3 7 1 16 -4 19 -6 4 -10 11 -10 17 0 6 8 4 18 -5 23 -21 32 -21
32 -1 0 8 -4 12 -10 9 -5 -3 -11 -1 -11 4 -1 6 -2 16 -3 22 0 7 -9 17 -19 23
-14 8 -20 8 -27 -4 -5 -8 -13 -11 -17 -6 -4 5 -2 11 4 13 8 3 11 14 7 29 -4
15 -2 24 6 24 7 0 3 13 -10 35 -15 25 -18 35 -8 35 7 0 2 6 -12 13 -14 7 -27
23 -28 37 -4 22 -2 22 23 -8 15 -18 31 -29 37 -26 5 3 18 -2 29 -12 18 -16 19
-16 19 8 0 14 -9 33 -20 43 -12 10 -30 39 -41 64 -15 35 -22 42 -31 33 -10
-10 -9 -17 1 -34 10 -15 10 -23 3 -26 -22 -7 -27 -2 -28 26 0 15 -4 36 -8 47
-7 18 -6 18 4 2 29 -46 37 44 9 106 -8 17 -9 31 -3 35 12 9 15 44 3 36 -5 -3
-12 2 -15 11 -4 8 -18 22 -32 29 -17 9 -26 22 -27 40 0 14 3 26 7 26 4 0 8 -7
8 -15 0 -8 7 -15 16 -15 8 0 20 -13 25 -30 6 -16 15 -27 21 -24 6 4 6 10 -1
17 -14 14 -15 40 -1 32 6 -3 10 1 10 11 0 13 -3 14 -14 5 -11 -9 -19 -5 -40
19 -14 18 -26 43 -26 56 0 15 -4 23 -11 19 -6 -4 -8 -20 -4 -38 l6 -32 -15 25
c-9 14 -15 32 -16 42 0 11 -7 15 -24 14 -20 -3 -23 2 -24 28 0 20 -8 36 -21
45 -12 7 -21 20 -21 29 0 8 -11 25 -25 38 -23 21 -30 44 -26 87 1 9 -3 17 -9
17 -6 0 -8 -5 -4 -12 5 -8 2 -9 -9 -5 -21 8 -21 -2 -1 -32 15 -21 15 -24 0
-39 -10 -11 -16 -12 -16 -4 0 7 6 12 13 12 8 0 9 3 1 8 -6 4 -17 18 -24 32 -7
14 -15 20 -17 14 -2 -7 -14 -10 -26 -8 -12 2 -17 2 -10 -2 7 -3 9 -12 6 -20
-9 -23 -23 -16 -23 12 0 14 -5 35 -11 47 -9 19 -8 19 12 -3 l22 -25 -7 25 -7
25 17 -22 c9 -12 22 -19 30 -16 11 4 12 8 3 19 -7 8 -8 18 -4 22 4 4 10 1 12
-5 7 -20 22 -15 16 6 -5 18 -29 21 -64 6 -10 -4 -19 0 -22 9 -4 10 -1 13 9 9
7 -3 14 0 14 5 0 17 -22 62 -31 62 -4 0 -12 14 -18 30 -5 17 -15 30 -20 30 -6
0 -11 7 -11 15 0 8 3 15 6 15 13 0 34 -30 34 -49 0 -12 5 -21 10 -21 19 0 10
51 -14 75 -13 13 -22 26 -20 28 9 8 -16 58 -26 52 -5 -3 -10 -2 -10 4 0 15 23
19 44 9 14 -8 17 -7 14 4 -3 7 -11 13 -18 13 -8 0 -17 9 -20 20 -3 11 -12 21
-21 21 -13 1 -16 -7 -15 -36 0 -21 4 -42 9 -46 9 -10 9 -24 -1 -24 -5 0 -16
15 -25 34 -13 29 -14 35 -2 40 8 3 12 12 9 20 -8 20 31 40 54 27 16 -8 17 -6
14 26 -4 30 -2 35 11 30 20 -7 29 4 18 22 -12 19 -55 -25 -46 -47 3 -9 2 -13
-2 -8 -4 4 -8 28 -9 52 0 24 -6 50 -13 57 -10 9 -11 8 -6 -6 4 -10 2 -17 -4
-17 -6 0 -11 5 -11 11 0 5 -4 7 -10 4 -5 -3 -10 -19 -10 -36 0 -36 -16 -38
-23 -3 -3 16 0 28 8 31 8 2 16 11 19 20 4 10 2 13 -8 10 -8 -3 -17 0 -20 8 -7
20 21 27 39 9 16 -17 18 -14 9 10 -3 9 -11 16 -18 16 -7 0 -16 15 -21 33 -6
17 -15 32 -22 32 -6 0 -14 3 -18 7 -4 4 -13 4 -21 1 -10 -4 -12 0 -8 11 3 9
-1 27 -10 41 -11 17 -14 31 -8 43 13 25 8 63 -11 93 -13 19 -15 33 -8 56 8 27
7 30 -10 26 -10 -3 -19 0 -19 6 0 6 7 11 15 11 8 0 15 5 15 11 0 5 6 7 13 4 6
-4 5 -1 -4 7 -9 7 -14 18 -12 24 2 7 -2 18 -9 25 -7 8 -21 26 -31 42 -16 24
-15 31 4 29 4 -1 5 22 4 51 -2 29 -1 46 2 40 7 -20 19 -15 19 7 0 11 -6 21
-13 21 -30 3 -33 4 -31 14 2 6 6 9 10 8 4 -2 5 4 2 12 -4 10 0 15 11 15 17 0
17 1 2 18 -10 10 -17 23 -17 29 0 6 -4 13 -9 15 -4 2 -11 14 -15 28 -6 24 -6
24 9 -2 9 -16 21 -28 27 -28 6 0 3 9 -8 21 -16 17 -16 22 -4 29 13 9 13 10 0
10 -10 0 -7 5 7 15 13 9 20 22 17 30 -4 8 -2 15 4 15 6 0 12 -6 15 -12 2 -7 4
-1 4 15 0 15 -3 30 -8 33 -5 3 -9 -2 -9 -11 0 -9 -4 -13 -10 -10 -5 3 -10 1
-10 -4 0 -16 -12 -13 -39 10 -13 11 -21 22 -17 26 3 4 12 1 18 -5 13 -13 29
-16 27 -4 -3 20 3 30 26 40 28 13 33 37 10 46 -17 6 -20 -4 -5 -22 7 -9 7 -9
-2 -2 -19 15 -32 12 -18 -5 9 -10 9 -15 1 -15 -11 0 -16 15 -11 35 1 6 4 19 6
30 2 11 8 21 14 23 5 2 10 11 10 20 0 12 -2 14 -8 5 -6 -10 -12 -10 -28 2 -11
8 -14 14 -6 15 9 0 10 5 2 19 -14 27 -13 31 8 31 13 0 14 -2 3 -9 -11 -7 -9
-11 8 -20 19 -11 21 -9 21 13 0 13 6 27 13 30 6 3 3 4 -9 1 -14 -4 -21 0 -21
9 0 8 5 14 11 13 6 -1 12 12 14 28 2 21 0 26 -6 16 -5 -7 -12 -9 -15 -4 -10
15 4 53 19 53 8 0 14 2 14 4 0 2 3 12 6 20 4 12 2 15 -9 10 -8 -3 -18 -1 -22
5 -3 6 -1 11 4 11 6 0 11 9 11 20 0 11 -5 20 -12 20 -6 0 -1 9 12 20 21 18 21
22 8 42 -8 13 -18 31 -21 42 -6 15 -4 17 18 12 18 -5 25 -2 25 9 0 8 5 15 11
15 8 0 7 5 -2 16 -10 13 -10 17 1 24 8 5 11 12 7 16 -4 4 -16 -1 -27 -11 -13
-11 -20 -14 -20 -6 0 17 26 41 44 41 11 0 8 7 -10 25 -21 21 -23 27 -12 44 7
11 17 17 23 13 5 -3 2 6 -7 21 -19 28 -25 52 -7 27 8 -11 9 -8 4 15 -4 16 -3
27 0 23 4 -4 14 -1 21 7 10 10 11 20 5 38 -7 18 -5 28 7 41 13 13 14 18 3 28
-11 10 -12 10 -7 1 4 -7 3 -13 -3 -13 -15 0 -23 18 -11 25 15 9 12 28 -3 22
-17 -7 -18 23 -1 40 7 7 18 13 24 13 6 0 10 15 8 35 -2 29 -4 32 -17 22 -12
-10 -14 -9 -8 6 3 9 2 17 -3 17 -6 0 -10 4 -10 10 0 5 6 7 13 4 10 -4 13 4 12
27 -2 27 0 30 10 16 15 -21 25 -22 25 -2 0 8 5 15 10 15 17 0 11 25 -10 40
-23 17 -26 38 -6 46 8 3 11 15 8 31 -4 22 -2 24 17 18 24 -7 29 13 9 33 -9 9
-9 12 0 12 7 0 12 5 12 11 0 20 -24 3 -30 -21 -8 -33 -29 -38 -26 -6 1 14 6
29 9 33 12 11 8 35 -5 27 -7 -5 -8 -3 -4 5 6 9 12 8 26 -4 15 -13 18 -14 23
-2 3 8 0 20 -6 26 -6 6 -7 11 -3 11 5 0 -2 9 -15 20 -15 12 -19 19 -10 20 10
0 11 3 2 14 -8 10 -6 19 9 39 13 16 16 28 10 32 -16 10 -12 28 5 21 13 -4 13
-2 5 14 -7 14 -6 22 5 34 19 19 19 26 0 26 -8 0 -15 -4 -15 -10 0 -5 -4 -10
-8 -10 -5 0 -9 7 -9 15 0 8 2 13 5 11 2 -2 14 5 27 16 18 16 21 23 12 33 -7 7
-14 9 -17 5 -3 -4 -11 -2 -18 6 -13 14 -5 19 21 15 5 -1 6 8 2 19 -5 14 -2 20
10 20 14 0 14 2 0 24 -19 29 -10 59 16 51 11 -4 19 -2 19 3 0 5 -9 12 -20 15
-21 5 -28 43 -10 49 6 2 11 12 11 23 0 49 -4 75 -11 75 -3 0 -7 7 -7 14 0 8 3
14 6 13 3 -1 7 0 8 3 1 3 8 18 17 34 13 26 13 31 1 40 -11 8 -13 22 -9 49 4
20 10 37 14 37 5 0 6 14 3 31 -3 20 0 35 8 40 10 6 10 11 -1 24 -8 10 -10 19
-4 23 5 4 10 14 12 22 3 12 1 13 -9 3 -24 -24 -33 -13 -10 11 17 18 19 25 9
29 -10 5 -9 9 4 19 12 11 14 18 6 32 -9 15 -6 23 13 37 13 10 19 19 14 19 -6
0 -16 -5 -22 -11 -24 -24 -33 -4 -15 33 18 34 18 38 3 53 -9 9 -11 15 -6 14
20 -3 35 1 35 12 0 5 -5 7 -10 4 -14 -9 -50 4 -50 17 0 7 5 7 14 -1 11 -9 15
-6 18 14 3 14 1 25 -4 25 -5 0 -8 6 -7 13 1 6 -1 20 -6 31 -5 12 -3 21 6 28
10 7 11 11 2 14 -7 3 -9 12 -6 21 4 11 2 14 -5 9 -7 -4 -12 -1 -12 8 0 8 5 18
10 21 6 3 10 11 10 16 0 6 -4 7 -10 4 -5 -3 -10 3 -10 14 0 11 -4 22 -9 25 -4
3 -6 17 -3 31 3 17 0 25 -9 25 -11 0 -11 2 1 10 10 6 11 10 3 10 -7 0 -13 5
-13 10 0 6 6 10 13 10 18 0 15 40 -5 70 -10 13 -18 29 -18 35 0 5 4 4 9 -4 5
-7 15 -11 22 -9 10 3 7 10 -9 23 -23 20 -29 49 -12 60 6 3 10 15 10 26 0 11
-4 17 -10 14 -22 -14 -10 8 28 50 18 20 -2 19 -22 0 -8 -8 -21 -15 -28 -14
-10 0 -10 2 0 6 10 4 10 8 0 21 -11 14 -10 15 7 8 11 -4 16 -4 13 -1 -4 4 -3
18 2 31 6 15 6 24 0 24 -6 0 -10 -4 -10 -10 0 -5 -4 -10 -10 -10 -5 0 -10 7
-10 15 0 8 5 15 10 15 6 0 10 5 10 11 0 6 -6 9 -14 6 -12 -5 -12 -2 0 21 12
23 11 29 -3 44 -15 17 -15 18 6 18 19 0 20 2 10 23 -7 12 -17 25 -22 29 -6 4
-4 12 6 23 18 18 23 30 8 21 -5 -3 -11 9 -14 27 -2 17 -1 34 4 37 10 7 5 63
-7 82 -8 13 -7 82 2 112 4 10 2 16 -3 13 -11 -7 -10 33 0 73 4 14 4 19 1 13
-11 -24 -20 -13 -20 22 0 19 5 35 11 35 6 0 6 3 -1 8 -7 4 -12 18 -12 32 0 51
-2 60 -17 60 -8 0 -15 -5 -15 -12 0 -6 -3 -9 -6 -5 -8 8 11 39 22 35 5 -1 9 9
9 24 1 21 -2 25 -12 16 -25 -20 -23 -2 2 25 27 28 32 42 13 31 -10 -5 -10 -4
-1 6 10 11 10 17 -3 31 -11 13 -13 22 -6 35 6 11 6 27 0 46 -8 21 -7 33 1 41
15 15 14 26 -4 23 -15 -2 -75 -79 -75 -96 0 -5 -4 -10 -9 -10 -5 0 -13 -9 -16
-21 -4 -11 -10 -18 -13 -15 -9 10 -10 46 0 46 5 0 8 15 7 33 -1 17 8 52 20 76
12 23 18 40 13 37 -10 -6 -92 -170 -92 -185 0 -5 -4 -12 -9 -15 -13 -8 -5 64
13 115 8 24 12 46 9 49 -3 3 -7 1 -10 -5 -2 -5 -12 -28 -22 -50 -15 -31 -20
-35 -20 -18 -2 43 -18 31 -31 -22 -7 -30 -17 -55 -22 -55 -5 0 -8 -6 -7 -12 2
-7 -1 -38 -6 -68 -5 -30 -9 -62 -9 -70 -1 -8 -5 -36 -10 -63 -6 -33 -5 -51 4
-62 9 -11 10 -18 1 -28 -6 -8 -12 -29 -15 -47 -2 -19 -9 -36 -15 -38 -8 -3 -7
-8 4 -16 18 -13 28 -73 14 -82 -6 -4 -7 -10 0 -17 12 -15 9 -69 -5 -84 -6 -6
-10 -21 -9 -34 1 -22 -22 -59 -37 -59 -3 0 -19 5 -35 12 -15 6 -32 10 -36 10
-4 -1 -10 4 -13 12 -3 8 -12 12 -20 9 -8 -3 -20 0 -28 6 -7 6 -15 9 -18 6 -20
-20 -72 160 -70 238 1 34 -2 49 -13 53 -8 4 -15 18 -16 33 0 14 -4 35 -8 46
-9 22 -25 -110 -17 -136 6 -19 14 -93 21 -209 5 -86 4 -97 -14 -118 -26 -29
-51 -18 -76 34 l-17 36 -18 -30 c-17 -27 -23 -30 -58 -26 -29 2 -42 -1 -46
-12 -3 -8 -10 -12 -16 -9 -5 3 -10 1 -10 -4 0 -6 -8 -19 -18 -29 -21 -21 -99
-22 -113 -1 -7 11 -9 11 -9 -3 0 -10 -4 -18 -10 -18 -5 0 -10 5 -10 10 0 7 -7
7 -21 -1 -17 -9 -23 -8 -30 2 -6 11 -9 10 -15 -4 -6 -16 -8 -16 -24 3 -17 20
-20 20 -49 6 -16 -9 -40 -17 -51 -19 -12 -2 -26 -10 -32 -18 -8 -11 -9 -10 -4
4 5 15 2 16 -14 7 -13 -7 -21 -7 -25 0 -4 6 -10 8 -14 5 -5 -2 -17 11 -27 30
-10 19 -22 35 -26 35 -3 0 -10 10 -13 23 -14 46 -30 77 -40 74 -5 -2 -15 -34
-21 -72 -8 -46 -18 -73 -30 -81 -11 -8 -25 -19 -33 -25 -10 -9 -15 -9 -22 2
-8 11 -13 10 -28 -8 -19 -23 -38 -32 -26 -13 11 18 -8 11 -32 -12 -19 -17 -23
-19 -17 -5 3 9 10 17 16 17 5 0 7 4 3 10 -3 5 -15 0 -26 -11 -17 -17 -28 -19
-67 -13 -56 8 -62 11 -62 29 0 12 -6 12 -26 4 -15 -5 -29 -7 -32 -4 -3 3 0 5
6 5 6 0 9 7 5 16 -3 8 -12 13 -20 9 -11 -4 -13 -1 -9 11 4 11 2 15 -8 11 -8
-3 -16 -1 -19 6 -2 7 -12 12 -23 12 -10 0 -19 5 -19 11 0 6 -8 18 -17 28 -10
10 -18 22 -18 27 0 18 -2 24 -11 35 -4 5 -10 38 -11 72 -4 76 -18 80 -48 14
-17 -38 -30 -52 -56 -61 -38 -14 -74 -7 -74 13 0 8 -7 20 -16 27 -15 12 -16 9
-13 -28 3 -31 1 -39 -7 -32 -8 7 -13 6 -16 -2 -4 -11 -118 -20 -118 -9 0 3
-15 7 -32 8 -18 2 -42 4 -53 7 -11 2 -23 4 -26 4 -4 1 -10 9 -13 19 -13 35
-34 64 -40 54 -3 -6 -14 -9 -24 -8 -20 4 -32 -11 -32 -40 0 -29 -91 -89 -154
-101 -11 -2 -24 -7 -30 -12 -6 -5 -40 -12 -75 -15 -36 -4 -68 -9 -72 -12 -13
-8 -86 33 -103 58 -18 26 -32 17 -40 -25 -9 -50 -16 -64 -41 -77 -14 -7 -25
-17 -25 -22 0 -4 -7 -8 -15 -8 -9 0 -35 -10 -58 -22 -51 -26 -211 -40 -274
-25 -66 17 -127 80 -144 150 l-12 51 34 29 c42 35 96 63 168 88 68 24 70 24
64 -1 -7 -25 8 -26 24 -1 18 28 99 63 154 66 27 1 49 -1 49 -6 0 -10 47 8 70
27 28 22 41 6 24 -29 l-16 -32 31 35 c16 19 30 41 31 48 0 6 5 12 10 12 6 0
10 -6 10 -12 1 -7 9 2 19 21 10 19 25 35 34 37 9 1 29 11 45 23 16 11 47 21
70 22 23 2 42 7 42 12 0 5 6 4 13 -2 8 -6 17 -7 21 -3 4 4 27 7 50 8 24 1 48
4 55 8 6 4 24 10 39 12 15 3 34 14 43 26 10 13 23 19 32 15 10 -4 20 0 25 10
5 8 33 19 63 25 30 5 59 13 64 18 6 4 24 11 40 15 40 11 44 12 53 15 4 1 11 2
16 1 4 -1 14 3 21 9 21 17 74 23 230 25 84 1 162 6 176 13 15 6 30 8 34 4 3
-3 10 0 16 8 7 12 11 13 18 2 7 -11 16 -11 50 -1 22 7 41 16 41 22 0 5 6 7 14
4 8 -3 23 3 34 14 24 22 42 24 62 7 12 -11 12 -10 1 5 -7 9 -10 18 -5 18 5 1
18 3 30 4 11 1 32 10 47 19 14 10 27 17 29 16 2 0 21 6 43 16 22 9 45 17 50
18 6 1 21 8 34 15 19 10 29 11 50 1 14 -6 23 -8 18 -4 -10 10 22 44 43 44 9 0
20 3 24 8 4 4 11 7 14 7 4 1 25 12 47 26 33 21 228 118 370 185 48 22 89 37
97 36 4 -1 10 8 13 19 4 13 12 18 21 15 13 -5 81 26 144 63 28 17 191 85 208
87 9 0 58 16 107 34 50 18 101 35 114 38 13 2 26 13 28 23 3 10 9 16 14 13 5
-3 9 0 9 5 0 20 -38 17 -95 -9 -65 -29 -85 -33 -101 -19 -13 10 -12 14 2 31
18 19 101 48 139 48 13 0 47 25 87 65 36 36 71 65 76 65 6 0 17 -7 26 -15z
m-4641 -30 c6 0 21 -15 33 -33 14 -20 24 -28 27 -20 3 8 6 5 6 -5 1 -11 -8
-21 -19 -24 -11 -3 -17 -10 -14 -15 4 -6 0 -15 -7 -20 -10 -7 -8 -8 7 -3 16 4
23 0 27 -15 5 -20 -1 -60 -10 -60 -10 0 -32 28 -26 34 3 3 -2 15 -12 26 -10
11 -15 20 -11 20 4 0 -5 15 -19 34 -28 37 -38 71 -29 100 6 20 7 20 21 0 7
-10 19 -19 26 -19z m357 -9 c0 -3 -4 -8 -10 -11 -5 -3 -10 -1 -10 4 0 6 5 11
10 11 6 0 10 -2 10 -4z m42 -18 c-6 -6 -19 -13 -27 -14 -13 -2 -14 1 -4 12 6
8 19 14 27 14 12 0 13 -3 4 -12z m3063 -8 c3 -5 1 -10 -4 -10 -6 0 -11 5 -11
10 0 6 2 10 4 10 3 0 8 -4 11 -10z m-1655 -24 c0 -2 -9 -2 -20 1 -11 3 -20 9
-20 15 0 5 9 4 20 -2 11 -6 20 -12 20 -14z m-1380 6 c0 -4 -9 -13 -19 -19 -16
-10 -18 -9 -14 8 5 18 33 28 33 11z m103 -14 c15 -6 27 -14 27 -18 0 -5 17 -6
38 -3 33 4 43 1 69 -26 17 -17 38 -31 45 -31 8 0 52 -12 99 -26 46 -14 95 -27
108 -29 40 -6 215 -55 234 -66 10 -5 27 -7 38 -4 22 7 59 -2 59 -15 0 -5 -8
-16 -17 -26 -16 -16 -16 -16 7 -9 14 5 31 8 38 8 6 0 12 4 12 9 0 14 22 9 42
-9 13 -12 34 -17 63 -15 24 1 47 -3 50 -8 4 -6 15 -6 30 0 20 7 25 6 25 -5 0
-8 5 -15 10 -15 6 0 10 7 10 15 0 20 30 7 31 -14 1 -14 2 -14 6 2 9 35 19 15
18 -40 0 -47 -3 -58 -17 -61 -12 -2 -18 3 -18 17 0 11 -5 23 -12 27 -7 5 -9 2
-5 -9 4 -11 2 -14 -9 -10 -10 4 -12 0 -7 -13 5 -14 3 -16 -11 -11 -10 4 -15 3
-11 -3 9 -14 -9 -12 -23 2 -9 9 -12 9 -12 0 0 -6 8 -16 18 -21 9 -6 13 -10 7
-10 -5 0 -19 6 -29 14 -13 10 -23 11 -31 5 -8 -7 -23 -2 -49 15 -35 23 -36 24
-36 4 0 -20 0 -20 -22 1 -22 20 -54 28 -43 10 3 -5 1 -10 -4 -10 -6 0 -11 5
-11 11 0 6 -6 9 -12 6 -7 -2 -11 -13 -10 -23 2 -10 1 -16 -3 -12 -3 3 -8 14
-9 24 -3 23 -26 31 -26 9 0 -10 -5 -14 -12 -10 -7 4 -5 0 5 -8 11 -9 14 -18 8
-21 -5 -4 -17 4 -25 16 -15 21 -56 33 -56 16 0 -4 -7 -8 -15 -8 -8 0 -15 7
-15 15 0 8 -4 15 -10 15 -5 0 -10 5 -10 11 0 6 8 8 19 4 11 -3 22 -1 26 4 3 6
-6 13 -21 17 -19 5 -22 9 -12 15 10 7 9 9 -5 9 -10 0 -25 7 -33 15 -9 8 -27
15 -40 15 -14 0 -23 3 -21 8 3 4 -20 8 -50 9 -49 2 -56 0 -61 -20 -6 -21 -6
-21 -12 3 -5 22 -11 25 -50 26 -48 0 -100 18 -100 32 0 8 -48 16 -127 24 -29
2 -93 80 -93 111 0 11 -9 28 -21 38 -18 16 -19 18 -4 27 23 12 45 12 78 0z
m2867 -18 c0 -5 -2 -10 -4 -10 -3 0 -8 5 -11 10 -3 6 -1 10 4 10 6 0 11 -4 11
-10z m25 -38 c-3 -3 -11 0 -18 7 -9 10 -8 11 6 5 10 -3 15 -9 12 -12z m-100
-20 c-3 -3 -18 -7 -33 -9 -24 -3 -25 -2 -10 10 10 8 14 18 10 22 -4 4 4 2 16
-4 13 -7 21 -15 17 -19z m-577 -2 c12 -19 11 -20 -8 -8 -20 13 -27 28 -12 28
4 0 13 -9 20 -20z m61 -6 c-15 -18 -22 -13 -13 10 3 9 10 13 16 10 5 -3 4 -12
-3 -20z m425 -15 c-10 -11 -25 -19 -36 -19 -23 0 -23 3 4 33 17 19 26 23 36
15 10 -9 9 -14 -4 -29z m-1505 4 c0 -16 -3 -22 -6 -15 -2 6 -11 12 -19 12 -8
0 -11 6 -8 15 10 26 34 17 33 -12z m1359 7 c10 -17 10 -20 -4 -20 -8 0 -12 5
-9 10 3 6 1 10 -4 10 -6 0 -11 5 -11 10 0 17 14 11 28 -10z m-37 -19 c11 -27
-6 -19 -22 11 -8 16 -8 19 2 16 6 -2 16 -14 20 -27z m-1343 -22 c7 -11 8 -19
2 -19 -5 0 -10 5 -10 10 0 6 -11 16 -25 22 -14 6 -25 15 -25 19 0 14 45 -11
58 -32z m1452 20 c0 -6 -4 -7 -10 -4 -5 3 -10 11 -10 16 0 6 5 7 10 4 6 -3 10
-11 10 -16z m-1400 1 c0 -5 -5 -10 -11 -10 -5 0 -7 5 -4 10 3 6 8 10 11 10 2
0 4 -4 4 -10z m-1435 -30 c17 -19 17 -19 -14 -7 -32 12 -42 27 -18 27 8 0 22
-9 32 -20z m-25 -25 c7 -9 8 -15 2 -15 -5 0 -12 7 -16 15 -3 8 -4 15 -2 15 2
0 9 -7 16 -15z m1535 -25 c3 -6 -1 -7 -9 -4 -18 7 -21 14 -7 14 6 0 13 -4 16
-10z m-795 -130 c0 -5 -6 -10 -14 -10 -8 0 -18 5 -21 10 -3 6 3 10 14 10 12 0
21 -4 21 -10z m2657 -66 c-3 -3 -12 -4 -19 -1 -8 3 -5 6 6 6 11 1 17 -2 13 -5z
m-2397 -14 c0 -5 -2 -10 -4 -10 -3 0 -8 5 -11 10 -3 6 -1 10 4 10 6 0 11 -4
11 -10z m-80 -20 c0 -5 -5 -10 -11 -10 -5 0 -7 5 -4 10 3 6 8 10 11 10 2 0 4
-4 4 -10z m155 -10 c10 -11 14 -20 8 -20 -5 0 -18 9 -28 20 -10 11 -14 20 -8
20 5 0 18 -9 28 -20z m-81 -76 c5 -14 4 -15 -9 -4 -17 14 -19 20 -6 20 5 0 12
-7 15 -16z m-611 -378 c4 -10 1 -13 -8 -9 -8 3 -12 9 -9 14 7 12 11 11 17 -5z
m-123 -16 c0 -5 -2 -10 -4 -10 -3 0 -8 5 -11 10 -3 6 -1 10 4 10 6 0 11 -4 11
-10z m213 -37 c-7 -18 -31 -23 -37 -7 -3 8 1 14 10 14 10 0 14 6 11 14 -3 8
-3 17 1 21 8 8 21 -26 15 -42z m-113 22 c0 -9 -6 -12 -15 -9 -8 4 -12 10 -9
15 8 14 24 10 24 -6z m75 5 c3 -6 -4 -10 -17 -10 -18 0 -20 2 -8 10 19 12 18
12 25 0z m-181 -21 c-8 -14 -24 -10 -24 6 0 9 6 12 15 9 8 -4 12 -10 9 -15z
m136 1 c0 -5 -5 -10 -11 -10 -5 0 -7 5 -4 10 3 6 8 10 11 10 2 0 4 -4 4 -10z
m-275 -20 c3 -5 1 -10 -4 -10 -6 0 -11 5 -11 10 0 6 2 10 4 10 3 0 8 -4 11
-10z m160 0 c3 -5 -1 -10 -10 -10 -9 0 -13 5 -10 10 3 6 8 10 10 10 2 0 7 -4
10 -10z m-108 -52 c-3 -8 -6 -5 -6 6 -1 11 2 17 5 13 3 -3 4 -12 1 -19z m220
-14 c-3 -3 -12 -4 -19 -1 -8 3 -5 6 6 6 11 1 17 -2 13 -5z m60 -36 c-3 -8 -6
-5 -6 6 -1 11 2 17 5 13 3 -3 4 -12 1 -19z m1843 -418 c0 -5 -5 -10 -11 -10
-5 0 -7 5 -4 10 3 6 8 10 11 10 2 0 4 -4 4 -10z m-2030 -95 c-7 -8 -22 -15
-34 -14 -18 0 -16 3 9 14 39 18 40 18 25 0z m-81 -14 c8 -14 6 -25 -8 -42
l-19 -24 72 3 c39 2 86 3 103 4 18 0 31 3 29 7 -3 4 19 7 49 6 45 0 57 -5 79
-28 14 -16 26 -32 26 -38 0 -13 -17 -11 -23 4 -3 6 -6 3 -6 -8 -1 -17 -3 -18
-12 -5 -8 12 -10 11 -7 -5 2 -11 7 -18 12 -17 9 4 26 -16 26 -30 0 -5 -6 -8
-14 -8 -8 0 -16 -4 -18 -9 -2 -5 -20 -3 -42 4 -37 13 -41 13 -55 -7 l-14 -21
-20 24 c-13 16 -18 18 -14 7 8 -22 3 -23 -17 -2 -10 10 -16 11 -16 4 0 -31
-123 33 -135 70 -3 11 -11 20 -17 20 -5 0 -8 7 -4 15 3 9 -3 19 -14 25 -19 10
-18 30 3 58 14 18 45 15 56 -7z m228 -219 c0 -28 -1 -28 -19 -10 -19 19 -16
38 6 38 7 0 13 -12 13 -28z m-211 -7 c7 -5 10 -13 7 -17 -2 -4 3 -5 11 -2 9 3
16 1 16 -5 0 -6 -6 -12 -12 -12 -41 -4 -68 -18 -68 -36 0 -8 -4 -11 -10 -8 -6
3 -7 -1 -4 -10 4 -9 20 -23 36 -31 16 -8 26 -19 23 -24 -3 -4 1 -10 7 -13 10
-3 10 -8 2 -17 -9 -9 -18 -8 -40 4 -16 8 -25 15 -20 16 5 0 -3 11 -19 24 -24
21 -27 28 -21 62 4 22 14 48 21 60 14 22 51 27 71 9z m4054 -985 c0 -5 -4 -10
-10 -10 -5 0 -10 5 -10 10 0 6 5 10 10 10 6 0 10 -4 10 -10z m-46 -318 c3 -5
-1 -9 -9 -9 -8 0 -15 4 -15 9 0 4 4 8 9 8 6 0 12 -4 15 -8z m1 -232 c3 -5 2
-10 -4 -10 -5 0 -13 5 -16 10 -3 6 -2 10 4 10 5 0 13 -4 16 -10z m-120 -570
c3 -5 1 -10 -4 -10 -6 0 -11 5 -11 10 0 6 2 10 4 10 3 0 8 -4 11 -10z m-5
-260 c0 -5 -2 -10 -4 -10 -3 0 -8 5 -11 10 -3 6 -1 10 4 10 6 0 11 -4 11 -10z
m30 -150 c0 -5 -7 -7 -15 -4 -8 4 -15 8 -15 10 0 2 7 4 15 4 8 0 15 -4 15 -10z
m2300 -41 c0 -11 -4 -18 -10 -14 -5 3 -7 12 -3 20 7 21 13 19 13 -6z m-2360
-250 c0 -5 -4 -9 -10 -9 -5 0 -10 7 -10 16 0 8 5 12 10 9 6 -3 10 -10 10 -16z
m-26 -145 c3 -8 2 -12 -4 -9 -6 3 -10 10 -10 16 0 14 7 11 14 -7z m3 -206 c-3
-8 -6 -5 -6 6 -1 11 2 17 5 13 3 -3 4 -12 1 -19z m2547 -123 c-7 -18 -8 -18
-14 1 -9 23 -1 39 11 27 6 -6 6 -18 3 -28z m-2564 -56 c0 -6 -4 -7 -10 -4 -5
3 -10 11 -10 16 0 6 5 7 10 4 6 -3 10 -11 10 -16z m30 -119 c0 -5 -5 -10 -11
-10 -5 0 -7 5 -4 10 3 6 8 10 11 10 2 0 4 -4 4 -10z m2594 -60 c-6 -5 -24 21
-24 34 0 6 6 1 14 -10 8 -10 12 -21 10 -24z m-2551 -210 c3 -11 1 -18 -4 -14
-5 3 -9 12 -9 20 0 20 7 17 13 -6z m18 -58 c11 -29 5 -28 -16 4 -11 17 -12 25
-4 22 6 -2 16 -14 20 -26z m-27 -11 c3 -5 -1 -14 -9 -21 -13 -10 -15 -9 -15 9
0 21 14 28 24 12z m37 -101 c10 0 10 -3 1 -12 -9 -9 -15 -8 -27 8 -8 10 -14
24 -14 29 0 6 6 2 13 -7 7 -10 19 -18 27 -18z m89 -72 c0 -9 -5 -20 -11 -24
-13 -8 -65 44 -54 54 4 4 10 1 12 -5 3 -7 11 -13 18 -13 7 0 16 -6 19 -12 3
-7 3 1 0 17 -4 23 -3 27 5 15 6 -8 11 -23 11 -32z m2560 -62 c-5 -5 -16 -2
-25 8 -14 14 -15 19 -4 32 11 14 14 13 25 -8 7 -13 9 -27 4 -32z m-2610 -21
c7 -9 8 -15 2 -15 -5 0 -12 7 -16 15 -3 8 -4 15 -2 15 2 0 9 -7 16 -15z m107
-65 c-1 -30 -4 -39 -15 -35 -7 3 -16 5 -18 5 -5 0 6 50 13 63 11 19 21 3 20
-33z m2553 -23 c0 -5 -4 -5 -10 -2 -5 3 -10 14 -10 23 0 15 2 15 10 2 5 -8 10
-19 10 -23z m-2630 -19 c0 -6 -6 -5 -15 2 -8 7 -15 14 -15 16 0 2 7 1 15 -2 8
-4 15 -11 15 -16z m2678 -110 c-4 -16 -29 -27 -45 -21 -7 3 -10 10 -7 15 4 6
10 5 15 -3 6 -11 9 -10 15 4 7 19 25 23 22 5z m-2650 -53 c-3 -3 -9 2 -12 12
-6 14 -5 15 5 6 7 -7 10 -15 7 -18z m42 -35 c0 -5 -7 -7 -15 -4 -8 4 -15 8
-15 10 0 2 7 4 15 4 8 0 15 -4 15 -10z m2610 -30 c0 -5 -4 -10 -10 -10 -5 0
-10 5 -10 10 0 6 5 10 10 10 6 0 10 -4 10 -10z m-2600 -42 c0 -6 -7 -5 -15 2
-8 7 -15 17 -15 22 0 6 7 5 15 -2 8 -7 15 -17 15 -22z m35 -27 c-3 -11 -1 -22
5 -26 5 -3 10 -11 10 -18 0 -7 -6 -5 -16 5 -14 14 -13 58 2 58 3 0 3 -9 -1
-19z m109 -194 c4 -19 3 -26 -4 -22 -5 3 -10 18 -10 32 0 32 5 28 14 -10z
m-24 -8 c0 -6 -4 -7 -10 -4 -5 3 -10 11 -10 16 0 6 5 7 10 4 6 -3 10 -11 10
-16z m90 -14 c0 -9 7 -18 15 -21 8 -4 15 -10 15 -14 0 -5 -11 -3 -25 3 -24 12
-35 47 -15 47 6 0 10 -7 10 -15z m5 -63 c0 -9 6 -16 12 -15 15 3 49 -44 39
-54 -3 -3 -6 -1 -6 6 0 8 -7 11 -15 7 -8 -3 -15 0 -15 6 0 7 -9 22 -21 34 -12
12 -18 28 -14 34 9 14 20 4 20 -18z m-90 8 c3 -5 2 -10 -4 -10 -5 0 -13 5 -16
10 -3 6 -2 10 4 10 5 0 13 -4 16 -10z m2286 -11 c11 -11 19 -23 17 -25 -3 -2
-15 7 -28 21 -28 30 -19 34 11 4z m39 -39 c0 -5 -3 -10 -7 -10 -5 0 -22 -13
-40 -30 -26 -25 -33 -27 -43 -15 -6 8 -9 19 -5 26 5 8 10 8 14 0 4 -6 17 -1
35 14 31 27 46 31 46 15z m-2120 -65 c0 -7 7 -18 15 -25 8 -7 15 -22 15 -33 0
-28 -17 -11 -41 42 -14 31 -15 39 -3 34 8 -3 14 -11 14 -18z m-52 -37 c12 -23
20 -43 18 -45 -2 -3 -10 6 -17 18 -7 13 -18 30 -26 37 -14 15 -17 32 -5 32 4
0 17 -19 30 -42z m2120 -27 c3 -8 -1 -12 -9 -9 -7 2 -15 10 -17 17 -3 8 1 12
9 9 7 -2 15 -10 17 -17z m-2128 -25 c0 -3 -4 -8 -10 -11 -5 -3 -10 -1 -10 4 0
6 5 11 10 11 6 0 10 -2 10 -4z m24 -22 c3 -8 2 -12 -4 -9 -6 3 -10 10 -10 16
0 14 7 11 14 -7z m116 -30 c0 -16 -16 -19 -25 -4 -8 13 4 32 16 25 5 -4 9 -13
9 -21z m-66 1 c-4 -8 -10 -12 -15 -9 -14 8 -10 24 6 24 9 0 12 -6 9 -15z
m1986 -15 c0 -12 -33 -5 -38 8 -2 6 5 8 17 5 12 -3 21 -9 21 -13z m-1944 -12
c5 -8 2 -9 -9 -5 -10 4 -17 1 -17 -5 0 -6 -3 -9 -6 -5 -7 7 4 27 16 27 5 0 12
-5 16 -12z m1898 -3 c3 -8 1 -15 -4 -15 -6 0 -10 7 -10 15 0 8 2 15 4 15 2 0
6 -7 10 -15z m-2041 -16 c4 -16 3 -18 -9 -8 -16 13 -19 29 -5 29 5 0 11 -9 14
-21z m-23 -29 c6 -11 8 -20 6 -20 -3 0 -10 9 -16 20 -6 11 -8 20 -6 20 3 0 10
-9 16 -20z m2067 14 c-3 -3 -12 -4 -19 -1 -8 3 -5 6 6 6 11 1 17 -2 13 -5z
m-1927 -47 c0 -18 -2 -19 -10 -7 -13 20 -13 43 0 35 6 -3 10 -16 10 -28z
m1903 18 c-3 -9 -8 -14 -10 -11 -3 3 -2 9 2 15 9 16 15 13 8 -4z m-1828 -45
c1 -11 -2 -20 -7 -20 -4 0 -7 11 -6 25 3 28 11 24 13 -5z m1796 -5 c5 4 9 -1
9 -9 0 -9 -4 -16 -8 -16 -14 0 -43 36 -35 44 4 3 11 0 16 -9 4 -8 12 -13 18
-10z m-1941 5 c0 -5 -4 -10 -10 -10 -5 0 -10 5 -10 10 0 6 5 10 10 10 6 0 10
-4 10 -10z m108 -41 c2 -23 2 -23 -13 -5 -18 24 -20 39 -2 34 6 -3 13 -15 15
-29z m1822 -9 c0 -5 -2 -10 -4 -10 -3 0 -8 5 -11 10 -3 6 -1 10 4 10 6 0 11
-4 11 -10z m-2010 -21 c0 -5 -4 -9 -10 -9 -5 0 -10 7 -10 16 0 8 5 12 10 9 6
-3 10 -10 10 -16z m1931 -8 c-20 -20 -51 -24 -51 -6 0 19 20 32 45 28 22 -5
22 -6 6 -22z m-1744 -45 c-3 -6 1 -20 9 -31 8 -10 14 -24 14 -29 0 -6 -9 4
-20 22 -21 35 -27 67 -9 57 6 -4 8 -12 6 -19z m1737 -11 c-4 -8 -10 -12 -15
-9 -14 8 -10 24 6 24 9 0 12 -6 9 -15z m-4 -44 c0 -5 -7 -11 -15 -15 -9 -3
-15 0 -15 9 0 8 7 15 15 15 8 0 15 -4 15 -9z m-44 -48 c-8 -8 -36 10 -36 25 0
13 3 12 20 -3 11 -10 18 -20 16 -22z m-1798 2 c-3 -3 -9 2 -12 12 -6 14 -5 15
5 6 7 -7 10 -15 7 -18z m-83 -25 c3 -5 1 -10 -4 -10 -6 0 -11 5 -11 10 0 6 2
10 4 10 3 0 8 -4 11 -10z m1959 -5 c3 -9 0 -15 -9 -15 -9 0 -12 6 -9 15 4 8 7
15 9 15 2 0 5 -7 9 -15z m-73 -18 c-10 -9 -11 -8 -5 6 3 10 9 15 12 12 3 -3 0
-11 -7 -18z m-1661 -8 c0 -6 -4 -7 -10 -4 -5 3 -10 11 -10 16 0 6 5 7 10 4 6
-3 10 -11 10 -16z m50 -34 c0 -5 -5 -3 -10 5 -5 8 -10 20 -10 25 0 6 5 3 10
-5 5 -8 10 -19 10 -25z m1605 15 c3 -5 2 -10 -4 -10 -5 0 -13 5 -16 10 -3 6
-2 10 4 10 5 0 13 -4 16 -10z m-1678 -22 c-3 -8 -6 -5 -6 6 -1 11 2 17 5 13 3
-3 4 -12 1 -19z m1667 -33 c3 -8 1 -15 -4 -15 -6 0 -10 7 -10 15 0 8 2 15 4
15 2 0 6 -7 10 -15z m-1554 -57 c0 -4 -4 -8 -10 -8 -5 0 -10 4 -10 9 0 5 -3
18 -6 28 -5 16 -4 16 10 -1 9 -11 16 -23 16 -28z m1540 11 c0 -4 -11 -2 -25 4
-14 7 -25 15 -25 19 0 4 11 2 25 -4 14 -6 25 -15 25 -19z m-49 -10 c8 -15 8
-19 0 -15 -6 4 -11 2 -11 -5 0 -8 -4 -8 -15 1 -8 7 -15 19 -15 26 0 22 28 16
41 -7z m-1534 -21 c-3 -8 -6 -5 -6 6 -1 11 2 17 5 13 3 -3 4 -12 1 -19z m53
-54 c0 -8 -4 -12 -10 -9 -5 3 -10 13 -10 21 0 8 5 12 10 9 6 -3 10 -13 10 -21z
m19 -25 c-17 -33 -27 -29 -16 6 7 23 13 31 18 23 4 -6 3 -20 -2 -29z m1406
-19 c3 -5 -1 -10 -9 -10 -9 0 -16 5 -16 10 0 6 4 10 9 10 6 0 13 -4 16 -10z
m45 -30 c0 -5 -8 -10 -17 -10 -15 0 -16 2 -3 10 19 12 20 12 20 0z m-1427 -27
c14 -29 12 -63 -4 -63 -12 0 -11 17 2 25 7 5 5 15 -5 31 -16 24 -20 34 -11 34
2 0 11 -12 18 -27z m1397 -28 c0 -8 -2 -15 -4 -15 -2 0 -6 7 -10 15 -3 8 -1
15 4 15 6 0 10 -7 10 -15z m-1453 -27 c-3 -8 -6 -5 -6 6 -1 11 2 17 5 13 3 -3
4 -12 1 -19z m103 -9 c0 -6 -4 -7 -10 -4 -5 3 -10 11 -10 16 0 6 5 7 10 4 6
-3 10 -11 10 -16z m7 -111 c8 -21 19 -38 24 -38 5 0 9 -7 9 -15 0 -8 -3 -15
-8 -15 -8 0 -44 62 -40 70 1 3 -10 18 -25 34 -35 37 -35 57 -1 25 14 -13 33
-41 41 -61z m1253 32 c0 -5 -4 -10 -10 -10 -5 0 -10 5 -10 10 0 6 5 10 10 10
6 0 10 -4 10 -10z m-30 -56 c0 -21 -26 -6 -27 17 -2 17 1 18 13 9 8 -7 14 -19
14 -26z m35 15 c11 -16 1 -19 -13 -3 -7 8 -8 14 -3 14 5 0 13 -5 16 -11z
m-1235 -74 c8 5 11 4 7 -2 -3 -5 3 -17 14 -26 10 -9 19 -27 19 -40 0 -13 11
-36 25 -51 30 -32 31 -42 6 -56 -11 -5 -21 -20 -24 -32 -3 -21 -4 -21 -11 -5
-6 12 -3 22 8 30 16 11 16 15 -1 47 -9 19 -18 45 -19 57 -1 12 -14 35 -28 50
-14 15 -26 32 -26 38 0 5 4 4 9 -4 5 -8 14 -10 21 -6z m1174 -34 c3 -5 -1 -11
-9 -15 -9 -3 -15 0 -15 9 0 16 16 20 24 6z m-1189 -31 c9 -16 14 -30 12 -30
-2 0 -13 14 -25 30 -13 17 -18 30 -13 30 6 0 17 -13 26 -30z m-26 -60 c11 -24
11 -24 -3 -6 -9 11 -16 24 -16 30 0 12 5 7 19 -24z m55 4 c3 -8 2 -12 -4 -9
-6 3 -10 10 -10 16 0 14 7 11 14 -7z m1079 -18 c10 -8 14 -17 9 -20 -4 -3 -16
4 -25 15 -19 22 -10 25 16 5z m-13 -46 c0 -5 -2 -10 -4 -10 -3 0 -8 5 -11 10
-3 6 -1 10 4 10 6 0 11 -4 11 -10z m-40 -10 c0 -5 -4 -10 -9 -10 -6 0 -13 5
-16 10 -3 6 1 10 9 10 9 0 16 -4 16 -10z m-30 -30 c0 -5 -2 -10 -4 -10 -3 0
-8 5 -11 10 -3 6 -1 10 4 10 6 0 11 -4 11 -10z m-1003 -97 c-6 -5 -37 56 -37
71 1 6 10 -6 21 -27 11 -22 18 -41 16 -44z m813 67 c0 -5 -5 -10 -11 -10 -5 0
-7 5 -4 10 3 6 8 10 11 10 2 0 4 -4 4 -10z m-759 -27 c13 -16 12 -17 -3 -4
-10 7 -18 15 -18 17 0 8 8 3 21 -13z m560 -68 c16 11 39 -9 29 -25 -8 -13 -10
-12 -10 4 0 12 -5 16 -16 12 -20 -8 -36 2 -27 17 5 8 8 8 11 -1 2 -7 8 -10 13
-7z m-601 -16 c0 -6 -4 -7 -10 -4 -5 3 -10 11 -10 16 0 6 5 7 10 4 6 -3 10
-11 10 -16z m133 -33 c-7 -11 -33 22 -33 42 0 9 7 6 19 -9 11 -13 17 -28 14
-33z m427 44 c0 -5 -4 -10 -10 -10 -5 0 -10 5 -10 10 0 6 5 10 10 10 6 0 10
-4 10 -10z m-469 -52 c8 -15 8 -18 0 -14 -6 4 -16 16 -22 28 -8 15 -8 18 0 14
6 -4 16 -16 22 -28z m459 -2 c0 -8 -36 -1 -42 8 -15 22 -8 26 17 10 14 -9 25
-17 25 -18z m-380 -7 c0 -6 -4 -7 -10 -4 -5 3 -10 11 -10 16 0 6 5 7 10 4 6
-3 10 -11 10 -16z m430 11 c0 -5 -2 -10 -4 -10 -3 0 -8 5 -11 10 -3 6 -1 10 4
10 6 0 11 -4 11 -10z m-174 -50 c0 -12 -4 -16 -9 -11 -5 5 -6 14 -3 20 10 15
12 14 12 -9z m-206 -21 c0 -5 -7 -6 -15 -3 -8 4 -15 13 -15 21 0 13 3 13 15 3
8 -7 15 -16 15 -21z m100 0 c0 -18 -2 -19 -15 -9 -15 12 -12 30 6 30 5 0 9
-10 9 -21z m-399 -36 c13 -16 12 -17 -3 -4 -10 7 -18 15 -18 17 0 8 8 3 21
-13z m254 7 c3 -5 1 -10 -4 -10 -6 0 -11 5 -11 10 0 6 2 10 4 10 3 0 8 -4 11
-10z m249 -16 c9 -24 7 -28 -9 -14 -17 14 -20 30 -6 30 5 0 12 -7 15 -16z
m-5001 -407 c24 -62 -75 -134 -133 -97 -11 7 -7 10 17 10 17 0 35 5 38 10 4 6
10 8 15 5 12 -7 24 39 17 65 -4 16 0 20 18 20 13 0 25 -6 28 -13z m132 3 c-3
-5 -12 -7 -20 -3 -21 7 -19 13 6 13 11 0 18 -4 14 -10z m315 -1 c0 -5 -15 -16
-33 -24 -29 -12 -42 -12 -87 0 -91 24 -84 35 23 35 61 0 97 -4 97 -11z m271
-21 c-7 -35 -32 -48 -56 -28 -23 19 2 60 35 60 26 0 27 -2 21 -32z m259 12 c0
-11 4 -20 9 -20 16 0 24 -41 11 -54 -10 -8 -11 -8 -6 2 4 7 2 12 -6 12 -7 0
-23 18 -36 40 l-23 40 26 0 c18 0 25 -5 25 -20z m150 -1 c0 -24 -23 -21 -28 4
-2 10 3 17 12 17 10 0 16 -9 16 -21z m198 -14 c2 -43 -24 -39 -30 6 -4 22 -1
29 12 29 12 0 17 -10 18 -35z m-188 -36 c0 -5 -7 -9 -15 -9 -15 0 -20 12 -9
23 8 8 24 -1 24 -14z m187 -24 c0 -8 -4 -15 -9 -15 -4 0 -8 7 -8 15 0 8 4 15
8 15 5 0 9 -7 9 -15z"/>
<path d="M14930 13196 c0 -9 5 -16 10 -16 6 0 10 4 10 9 0 6 -4 13 -10 16 -5
3 -10 -1 -10 -9z"/>
<path d="M14740 13170 c8 -5 20 -10 25 -10 6 0 3 5 -5 10 -8 5 -19 10 -25 10
-5 0 -3 -5 5 -10z"/>
<path d="M15330 13169 c0 -5 5 -7 10 -4 6 3 10 8 10 11 0 2 -4 4 -10 4 -5 0
-10 -5 -10 -11z"/>
<path d="M15218 13163 c7 -3 16 -2 19 1 4 3 -2 6 -13 5 -11 0 -14 -3 -6 -6z"/>
<path d="M15056 13153 c-11 -11 -6 -21 14 -26 11 -3 20 -3 20 0 0 10 -28 32
-34 26z"/>
<path d="M14556 13105 c4 -8 8 -15 10 -15 2 0 4 7 4 15 0 8 -4 15 -10 15 -5 0
-7 -7 -4 -15z"/>
<path d="M14424 13044 c4 -9 1 -23 -5 -30 -12 -14 -4 -34 13 -34 5 0 7 7 4 16
-4 9 -1 23 5 30 12 14 4 34 -13 34 -5 0 -7 -7 -4 -16z"/>
<path d="M15828 12993 c7 -3 16 -2 19 1 4 3 -2 6 -13 5 -11 0 -14 -3 -6 -6z"/>
<path d="M16010 12911 c0 -5 5 -13 10 -16 6 -3 10 -2 10 4 0 5 -4 13 -10 16
-5 3 -10 2 -10 -4z"/>
<path d="M14240 12869 c0 -5 5 -7 10 -4 6 3 10 8 10 11 0 2 -4 4 -10 4 -5 0
-10 -5 -10 -11z"/>
<path d="M15907 12829 c7 -7 15 -10 18 -7 3 3 -2 9 -12 12 -14 6 -15 5 -6 -5z"/>
<path d="M14113 12815 c-3 -9 -3 -18 -1 -21 3 -3 8 4 11 16 6 23 -1 27 -10 5z"/>
<path d="M16130 12784 c0 -13 18 -39 24 -34 2 3 -2 14 -10 24 -8 11 -14 16
-14 10z"/>
<path d="M13992 12709 c3 -8 1 -22 -4 -31 -6 -14 -5 -16 7 -12 18 7 20 40 4
50 -7 4 -10 1 -7 -7z"/>
<path d="M14027 12679 c7 -7 15 -10 18 -7 3 3 -2 9 -12 12 -14 6 -15 5 -6 -5z"/>
<path d="M16216 12624 c-4 -10 1 -22 11 -30 21 -16 35 -13 42 7 4 12 2 12 -12
0 -14 -11 -18 -11 -23 2 -3 9 -3 21 1 27 3 5 2 10 -3 10 -6 0 -13 -7 -16 -16z"/>
<path d="M16318 12598 c12 -12 25 -19 28 -15 4 4 -1 14 -12 22 -29 22 -41 18
-16 -7z"/>
<path d="M16330 12516 c0 -8 4 -17 9 -20 5 -4 7 3 4 14 -6 23 -13 26 -13 6z"/>
<path d="M16365 12410 c-3 -5 -1 -10 4 -10 6 0 11 5 11 10 0 6 -2 10 -4 10 -3
0 -8 -4 -11 -10z"/>
<path d="M16341 12364 c0 -11 3 -14 6 -6 3 7 2 16 -1 19 -3 4 -6 -2 -5 -13z"/>
<path d="M16368 12373 c7 -3 16 -2 19 1 4 3 -2 6 -13 5 -11 0 -14 -3 -6 -6z"/>
<path d="M13750 12350 c0 -5 5 -10 10 -10 6 0 10 5 10 10 0 6 -4 10 -10 10 -5
0 -10 -4 -10 -10z"/>
<path d="M13636 12204 c-5 -14 -4 -15 9 -4 17 14 19 20 6 20 -5 0 -12 -7 -15
-16z"/>
<path d="M13660 12179 c0 -5 5 -7 10 -4 6 3 10 8 10 11 0 2 -4 4 -10 4 -5 0
-10 -5 -10 -11z"/>
<path d="M16430 12156 c0 -2 7 -9 15 -16 13 -11 14 -10 9 4 -5 14 -24 23 -24
12z"/>
<path d="M16455 11982 c-5 -4 -12 -16 -13 -27 -4 -23 0 -20 17 13 12 24 12 26
-4 14z"/>
<path d="M13783 11925 c-3 -9 -3 -18 -1 -21 3 -3 8 4 11 16 6 23 -1 27 -10 5z"/>
<path d="M16492 11706 c7 -8 17 -12 22 -9 4 3 2 9 -5 14 -22 13 -31 11 -17 -5z"/>
<path d="M16550 11591 c0 -6 4 -13 10 -16 6 -3 7 1 4 9 -7 18 -14 21 -14 7z"/>
<path d="M14435 11580 c3 -5 8 -10 11 -10 2 0 4 5 4 10 0 6 -5 10 -11 10 -5 0
-7 -4 -4 -10z"/>
<path d="M14480 11580 c-9 -6 -10 -10 -3 -10 6 0 15 5 18 10 8 12 4 12 -15 0z"/>
<path d="M16520 11570 c-8 -5 -12 -12 -9 -15 4 -3 12 1 19 10 14 17 11 19 -10
5z"/>
<path d="M16578 11550 c-10 -11 -14 -20 -10 -20 4 0 -2 -7 -12 -15 -19 -15
-19 -15 2 -15 15 0 22 6 22 19 0 11 5 21 12 23 6 2 9 10 7 16 -3 8 -10 6 -21
-8z"/>
<path d="M13807 11548 c-16 -12 -16 -14 0 -24 15 -9 18 -8 18 12 0 13 0 24 -1
24 0 0 -8 -6 -17 -12z"/>
<path d="M14250 11480 c0 -5 5 -10 11 -10 5 0 7 5 4 10 -3 6 -8 10 -11 10 -2
0 -4 -4 -4 -10z"/>
<path d="M13965 11450 c3 -5 8 -10 11 -10 2 0 4 5 4 10 0 6 -5 10 -11 10 -5 0
-7 -4 -4 -10z"/>
<path d="M16606 11441 c-4 -7 -5 -15 -2 -18 9 -9 19 4 14 18 -4 11 -6 11 -12
0z"/>
<path d="M13936 11424 c-9 -24 -7 -27 9 -10 17 17 19 26 6 26 -5 0 -12 -7 -15
-16z"/>
<path d="M16634 11419 c-3 -6 -1 -16 5 -22 8 -8 11 -5 11 11 0 24 -5 28 -16
11z"/>
<path d="M14002 11394 c-7 -8 -8 -14 -3 -14 10 0 25 19 20 25 -2 1 -10 -3 -17
-11z"/>
<path d="M16570 11376 c0 -11 27 -36 39 -36 5 0 13 5 17 12 5 7 3 8 -5 4 -7
-5 -21 0 -32 10 -10 9 -19 14 -19 10z"/>
<path d="M14036 11361 c-3 -5 1 -11 9 -14 9 -4 12 -1 8 9 -6 16 -10 17 -17 5z"/>
<path d="M15080 11276 c0 -2 7 -9 15 -16 13 -11 14 -10 9 4 -5 14 -24 23 -24
12z"/>
<path d="M16593 11215 c7 -13 14 -20 15 -14 5 14 -6 39 -17 39 -5 0 -4 -11 2
-25z"/>
<path d="M15306 11131 c-7 -10 23 -20 42 -14 6 3 10 9 6 14 -7 12 -41 12 -48
0z"/>
<path d="M16550 11133 c0 -4 5 -15 10 -23 8 -13 10 -13 10 2 0 9 -4 20 -10 23
-5 3 -10 3 -10 -2z"/>
<path d="M15306 11101 c-3 -5 1 -11 9 -15 15 -6 29 7 18 18 -9 9 -21 8 -27 -3z"/>
<path d="M13890 11082 c0 -6 9 -16 20 -22 16 -9 20 -8 20 6 0 10 -3 14 -7 11
-3 -4 -12 -2 -20 4 -9 8 -13 8 -13 1z"/>
<path d="M16530 11083 c0 -5 4 -15 10 -23 11 -18 25 -7 17 15 -6 15 -27 21
-27 8z"/>
<path d="M13962 11064 c10 -10 20 -16 22 -13 3 3 -5 11 -17 18 -21 13 -21 12
-5 -5z"/>
<path d="M15095 11010 c3 -5 8 -10 11 -10 2 0 4 5 4 10 0 6 -5 10 -11 10 -5 0
-7 -4 -4 -10z"/>
<path d="M16490 11010 c0 -5 9 -14 20 -20 19 -10 20 -10 8 9 -13 22 -28 28
-28 11z"/>
<path d="M15092 10974 c4 -23 27 -31 24 -8 -2 10 -8 20 -15 22 -8 3 -12 -3 -9
-14z"/>
<path d="M15005 10939 c-4 -6 -4 -13 -1 -16 3 -4 6 -1 6 6 0 7 5 9 10 6 6 -3
10 -1 10 4 0 14 -17 14 -25 0z"/>
<path d="M15064 10920 c0 -11 6 -20 14 -20 7 0 12 8 10 17 -4 24 -24 27 -24 3z"/>
<path d="M16470 10882 c0 -4 9 -8 20 -9 11 -1 20 2 20 5 0 4 -9 8 -20 9 -11 1
-20 -2 -20 -5z"/>
<path d="M15125 10860 c3 -5 8 -10 11 -10 2 0 4 5 4 10 0 6 -5 10 -11 10 -5 0
-7 -4 -4 -10z"/>
<path d="M14945 10790 c3 -5 8 -10 11 -10 2 0 4 5 4 10 0 6 -5 10 -11 10 -5 0
-7 -4 -4 -10z"/>
<path d="M16458 10758 c7 -28 22 -32 22 -5 0 13 -6 24 -14 24 -8 0 -11 -8 -8
-19z"/>
<path d="M14700 10761 c-24 -7 -24 -7 -3 -13 14 -4 24 -1 27 8 3 8 4 14 3 13
-1 -1 -13 -4 -27 -8z"/>
<path d="M12780 10698 c0 -6 -7 -20 -17 -30 -9 -10 -13 -18 -10 -18 9 0 47 42
47 52 0 4 -4 8 -10 8 -5 0 -10 -5 -10 -12z"/>
<path d="M13056 10635 c4 -8 8 -15 10 -15 2 0 4 7 4 15 0 8 -4 15 -10 15 -5 0
-7 -7 -4 -15z"/>
<path d="M15553 10634 c19 -23 24 -45 5 -26 -17 17 -33 15 -18 -3 7 -8 18 -15
25 -15 12 0 22 -15 23 -33 0 -14 55 -67 69 -67 19 0 17 3 -27 51 -22 24 -40
49 -40 55 0 6 -12 21 -27 35 -20 17 -23 18 -10 3z"/>
<path d="M12991 10621 c-12 -8 -12 -12 2 -25 20 -21 22 -20 23 9 2 27 -3 30
-25 16z"/>
<path d="M16416 10535 c4 -8 11 -15 16 -15 6 0 5 6 -2 15 -7 8 -14 15 -16 15
-2 0 -1 -7 2 -15z"/>
<path d="M15256 10525 c-3 -9 0 -15 9 -15 9 0 12 6 9 15 -4 8 -7 15 -9 15 -2
0 -5 -7 -9 -15z"/>
<path d="M15360 10516 c0 -2 8 -10 18 -17 15 -13 16 -12 3 4 -13 16 -21 21
-21 13z"/>
<path d="M15325 10490 c-3 -5 -1 -10 4 -10 6 0 11 5 11 10 0 6 -2 10 -4 10 -3
0 -8 -4 -11 -10z"/>
<path d="M15690 10490 c0 -5 5 -10 10 -10 6 0 10 -7 10 -15 0 -8 5 -15 10 -15
16 0 11 37 -6 44 -21 8 -24 8 -24 -4z"/>
<path d="M15590 10460 c0 -5 5 -10 11 -10 5 0 7 5 4 10 -3 6 -8 10 -11 10 -2
0 -4 -4 -4 -10z"/>
<path d="M16435 10410 c-3 -5 -2 -10 4 -10 5 0 13 5 16 10 3 6 2 10 -4 10 -5
0 -13 -4 -16 -10z"/>
<path d="M15525 10380 c3 -5 11 -10 16 -10 6 0 7 5 4 10 -3 6 -11 10 -16 10
-6 0 -7 -4 -4 -10z"/>
<path d="M15625 10370 c3 -5 8 -10 11 -10 2 0 4 5 4 10 0 6 -5 10 -11 10 -5 0
-7 -4 -4 -10z"/>
<path d="M12977 9999 c7 -7 15 -10 18 -7 3 3 -2 9 -12 12 -14 6 -15 5 -6 -5z"/>
<path d="M16246 9941 c-4 -5 -2 -12 3 -15 5 -4 12 -2 15 3 4 5 2 12 -3 15 -5
4 -12 2 -15 -3z"/>
<path d="M16226 9842 c-3 -5 1 -9 9 -9 8 0 12 4 9 9 -3 4 -7 8 -9 8 -2 0 -6
-4 -9 -8z"/>
<path d="M16180 9782 c0 -4 9 -8 20 -9 11 -1 18 2 15 8 -7 11 -35 12 -35 1z"/>
<path d="M16098 9743 c7 -3 16 -2 19 1 4 3 -2 6 -13 5 -11 0 -14 -3 -6 -6z"/>
<path d="M13840 9675 c-7 -8 -8 -15 -2 -15 5 0 15 7 22 15 7 8 8 15 2 15 -5 0
-15 -7 -22 -15z"/>
<path d="M16050 9585 c-7 -9 -10 -18 -7 -21 3 -3 10 4 17 15 13 25 8 27 -10 6z"/>
<path d="M14066 9426 c3 -9 11 -16 16 -16 13 0 5 23 -10 28 -7 2 -10 -2 -6
-12z"/>
<path d="M14140 9340 c0 -5 5 -10 11 -10 5 0 7 5 4 10 -3 6 -8 10 -11 10 -2 0
-4 -4 -4 -10z"/>
<path d="M14170 9216 c0 -2 7 -9 15 -16 13 -11 14 -10 9 4 -5 14 -24 23 -24
12z"/>
<path d="M15720 9151 c0 -10 19 -25 25 -20 1 2 -3 10 -11 17 -8 7 -14 8 -14 3z"/>
<path d="M14349 9092 c12 -22 31 -22 31 0 0 6 -3 8 -7 5 -3 -4 -13 -1 -21 6
-13 10 -14 9 -3 -11z"/>
<path d="M14395 9070 c3 -5 14 -10 23 -10 15 0 15 2 2 10 -20 13 -33 13 -25 0z"/>
<path d="M14466 9041 c-3 -5 1 -11 9 -15 8 -3 15 -1 15 4 0 13 -18 22 -24 11z"/>
<path d="M15597 9024 c23 -17 30 -17 30 -1 0 6 -11 13 -24 13 -22 2 -23 1 -6
-12z"/>
<path d="M15520 8990 c-8 -5 -10 -10 -5 -10 6 0 17 5 25 10 8 5 11 10 5 10 -5
0 -17 -5 -25 -10z"/>
<path d="M15556 8985 c-3 -9 0 -15 9 -15 8 0 15 5 15 11 0 6 9 9 20 6 11 -3
18 -1 14 4 -9 15 -51 10 -58 -6z"/>
<path d="M15500 8920 c-8 -5 -10 -10 -5 -10 6 0 17 5 25 10 8 5 11 10 5 10 -5
0 -17 -5 -25 -10z"/>
<path d="M14735 8870 c3 -5 13 -10 21 -10 8 0 12 5 9 10 -3 6 -13 10 -21 10
-8 0 -12 -4 -9 -10z"/>
<path d="M15205 8850 c4 -6 11 -8 16 -5 14 9 11 15 -7 15 -8 0 -12 -5 -9 -10z"/>
<path d="M12251 10986 c-9 -11 -6 -12 14 -8 14 2 25 8 25 13 0 14 -26 11 -39
-5z"/>
<path d="M12235 10950 c3 -5 10 -10 16 -10 5 0 9 5 9 10 0 6 -7 10 -16 10 -8
0 -12 -4 -9 -10z"/>
<path d="M12160 10939 c0 -5 5 -7 10 -4 6 3 10 8 10 11 0 2 -4 4 -10 4 -5 0
-10 -5 -10 -11z"/>
<path d="M12395 10920 c-3 -6 1 -7 9 -4 18 7 21 14 7 14 -6 0 -13 -4 -16 -10z"/>
<path d="M12370 10895 c0 -8 4 -15 10 -15 5 0 7 7 4 15 -4 8 -8 15 -10 15 -2
0 -4 -7 -4 -15z"/>
<path d="M12495 10850 c-3 -5 -1 -10 4 -10 6 0 11 5 11 10 0 6 -2 10 -4 10 -3
0 -8 -4 -11 -10z"/>
<path d="M12125 10810 c3 -5 8 -10 11 -10 2 0 4 5 4 10 0 6 -5 10 -11 10 -5 0
-7 -4 -4 -10z"/>
<path d="M12460 10773 c8 -12 18 -19 22 -17 4 3 8 -3 8 -12 0 -13 3 -15 10 -8
13 13 2 46 -11 38 -6 -3 -17 0 -26 8 -15 12 -15 11 -3 -9z"/>
<path d="M12523 10775 c0 -8 4 -12 9 -9 4 3 8 9 8 15 0 5 -4 9 -8 9 -5 0 -9
-7 -9 -15z"/>
<path d="M12570 10764 c0 -8 5 -12 10 -9 6 4 8 11 5 16 -9 14 -15 11 -15 -7z"/>
<path d="M12385 10750 c-3 -5 -1 -10 4 -10 6 0 11 5 11 10 0 6 -2 10 -4 10 -3
0 -8 -4 -11 -10z"/>
<path d="M12215 10729 c-4 -6 -5 -12 -2 -15 2 -3 7 2 10 11 7 17 1 20 -8 4z"/>
<path d="M12161 10714 c0 -11 3 -14 6 -6 3 7 2 16 -1 19 -3 4 -6 -2 -5 -13z"/>
<path d="M12690 10710 c-13 -8 -12 -10 3 -10 9 0 17 5 17 10 0 12 -1 12 -20 0z"/>
<path d="M12141 10678 c5 -18 9 -34 9 -36 0 -2 4 -1 9 3 6 3 6 17 -1 35 -14
41 -29 38 -17 -2z"/>
<path d="M12540 9142 c0 -5 7 -9 15 -9 8 0 15 4 15 9 0 4 -7 8 -15 8 -8 0 -15
-4 -15 -8z"/>
<path d="M16081 7900 c-23 -107 -2 -220 52 -275 18 -19 18 -18 -2 22 -24 49
-42 177 -29 212 10 27 8 91 -3 91 -4 0 -12 -23 -18 -50z"/>
<path d="M13636 7645 c-3 -8 -1 -15 4 -15 6 0 10 7 10 15 0 8 -2 15 -4 15 -2
0 -6 -7 -10 -15z"/>
<path d="M14760 7543 c0 -28 3 -34 10 -23 13 20 13 47 0 55 -6 4 -10 -9 -10
-32z"/>
<path d="M14756 7491 c-4 -5 -2 -12 3 -15 5 -4 12 -2 15 3 4 5 2 12 -3 15 -5
4 -12 2 -15 -3z"/>
<path d="M16680 7110 c0 -5 5 -10 10 -10 6 0 10 5 10 10 0 6 -4 10 -10 10 -5
0 -10 -4 -10 -10z"/>
<path d="M16710 6969 c0 -5 5 -7 10 -4 6 3 10 8 10 11 0 2 -4 4 -10 4 -5 0
-10 -5 -10 -11z"/>
<path d="M18410 6429 c0 -5 5 -7 10 -4 6 3 10 8 10 11 0 2 -4 4 -10 4 -5 0
-10 -5 -10 -11z"/>
<path d="M18460 6118 c0 -9 5 -20 10 -23 13 -8 13 5 0 25 -8 13 -10 13 -10 -2z"/>
<path d="M16710 6021 c0 -17 18 -21 24 -6 3 9 0 15 -9 15 -8 0 -15 -4 -15 -9z"/>
<path d="M18535 5830 c3 -5 8 -10 11 -10 2 0 4 5 4 10 0 6 -5 10 -11 10 -5 0
-7 -4 -4 -10z"/>
<path d="M16695 5790 c-3 -5 1 -10 9 -10 9 0 16 5 16 10 0 6 -4 10 -9 10 -6 0
-13 -4 -16 -10z"/>
<path d="M18575 5679 c-10 -15 3 -25 16 -12 7 7 7 13 1 17 -6 3 -14 1 -17 -5z"/>
<path d="M16680 5520 c0 -5 5 -10 10 -10 6 0 10 5 10 10 0 6 -4 10 -10 10 -5
0 -10 -4 -10 -10z"/>
<path d="M16646 5495 c-3 -8 -1 -15 5 -15 6 0 8 -10 4 -22 -5 -18 -4 -20 4 -8
13 18 14 60 2 60 -5 0 -11 -7 -15 -15z"/>
<path d="M16570 4700 c0 -5 5 -10 11 -10 5 0 7 -4 4 -10 -3 -5 -2 -10 4 -10
20 0 21 19 1 30 -13 7 -20 7 -20 0z"/>
<path d="M16550 4501 c15 -30 30 -35 17 -6 -7 14 -16 25 -20 25 -4 0 -3 -9 3
-19z"/>
<path d="M16580 4509 c0 -5 5 -7 10 -4 6 3 10 8 10 11 0 2 -4 4 -10 4 -5 0
-10 -5 -10 -11z"/>
<path d="M16555 4429 c-11 -16 -1 -19 13 -3 7 8 8 14 3 14 -5 0 -13 -5 -16
-11z"/>
<path d="M16530 4310 c0 -5 5 -10 10 -10 6 0 10 5 10 10 0 6 -4 10 -10 10 -5
0 -10 -4 -10 -10z"/>
<path d="M16556 4252 c-3 -6 -1 -14 5 -17 15 -10 25 3 12 16 -7 7 -13 7 -17 1z"/>
<path d="M18840 4176 c0 -2 7 -9 15 -16 9 -7 15 -8 15 -2 0 5 -7 12 -15 16 -8
3 -15 4 -15 2z"/>
<path d="M16545 4160 c-3 -5 -1 -10 4 -10 6 0 11 5 11 10 0 6 -2 10 -4 10 -3
0 -8 -4 -11 -10z"/>
<path d="M16561 4044 c0 -11 3 -14 6 -6 3 7 2 16 -1 19 -3 4 -6 -2 -5 -13z"/>
<path d="M18865 4040 c3 -5 11 -10 16 -10 6 0 7 5 4 10 -3 6 -11 10 -16 10 -6
0 -7 -4 -4 -10z"/>
<path d="M16524 3844 c3 -9 6 -20 6 -25 0 -5 5 -9 10 -9 6 0 10 7 10 15 0 8
-5 15 -11 15 -5 0 -7 5 -4 10 3 6 1 10 -5 10 -7 0 -9 -7 -6 -16z"/>
<path d="M16520 3735 c0 -8 5 -15 10 -15 6 0 10 7 10 15 0 8 -4 15 -10 15 -5
0 -10 -7 -10 -15z"/>
<path d="M18900 3730 c0 -5 5 -10 10 -10 6 0 10 5 10 10 0 6 -4 10 -10 10 -5
0 -10 -4 -10 -10z"/>
<path d="M19021 3644 c0 -11 3 -14 6 -6 3 7 2 16 -1 19 -3 4 -6 -2 -5 -13z"/>
<path d="M16537 3644 c-5 -5 -2 -34 8 -80 5 -25 35 -41 35 -20 0 8 -7 17 -15
20 -12 4 -14 14 -10 40 6 31 -4 54 -18 40z"/>
<path d="M16570 3641 c0 -5 5 -13 10 -16 6 -3 10 -2 10 4 0 5 -4 13 -10 16 -5
3 -10 2 -10 -4z"/>
<path d="M16521 3564 c0 -11 3 -14 6 -6 3 7 2 16 -1 19 -3 4 -6 -2 -5 -13z"/>
<path d="M18965 3560 c-3 -5 1 -10 10 -10 9 0 13 5 10 10 -3 6 -8 10 -10 10
-2 0 -7 -4 -10 -10z"/>
<path d="M19005 3540 c3 -5 11 -10 16 -10 6 0 7 5 4 10 -3 6 -11 10 -16 10 -6
0 -7 -4 -4 -10z"/>
<path d="M16581 3521 c-23 -6 -23 -7 -7 -24 10 -9 20 -17 23 -17 4 0 3 3 0 6
-3 4 -2 15 4 25 5 11 8 19 7 18 -2 -1 -14 -4 -27 -8z"/>
<path d="M16565 3432 c-3 -9 -1 -18 4 -20 16 -5 13 -22 -4 -22 -8 0 -15 -5
-15 -11 0 -5 5 -7 10 -4 6 3 10 1 10 -5 0 -7 7 -10 15 -6 8 3 15 1 15 -3 0 -5
-4 -11 -9 -13 -4 -1 1 -12 11 -23 19 -20 20 -20 12 10 -4 17 -13 42 -20 56 -9
18 -10 29 -3 36 7 7 6 12 -5 16 -8 3 -17 -1 -21 -11z"/>
<path d="M19070 3325 c0 -22 3 -26 10 -15 7 12 11 10 19 -10 6 -16 10 -19 10
-9 1 9 -8 27 -19 40 l-19 24 -1 -30z"/>
<path d="M16592 3233 c-2 -18 2 -33 8 -33 5 0 9 10 7 23 -1 12 3 21 9 20 6 -1
11 4 11 10 0 7 -8 13 -17 13 -11 0 -17 -10 -18 -33z"/>
<path d="M19085 3240 c-4 -7 -1 -16 6 -21 17 -10 26 8 11 23 -6 6 -12 6 -17
-2z"/>
<path d="M16755 3039 c-4 -6 -5 -13 -2 -16 7 -7 27 6 27 18 0 12 -17 12 -25
-2z"/>
<path d="M19096 2946 c21 -15 30 -14 19 3 -3 6 -14 11 -23 11 -13 0 -13 -2 4
-14z"/>
<path d="M19140 2920 c-9 -6 -10 -10 -3 -10 6 0 15 5 18 10 8 12 4 12 -15 0z"/>
<path d="M16775 2860 c3 -5 8 -10 11 -10 2 0 4 5 4 10 0 6 -5 10 -11 10 -5 0
-7 -4 -4 -10z"/>
<path d="M19160 2811 c0 -6 5 -13 10 -16 6 -3 10 1 10 9 0 9 -4 16 -10 16 -5
0 -10 -4 -10 -9z"/>
<path d="M16757 2793 c3 -7 11 -13 19 -13 8 0 14 6 14 13 0 7 -8 13 -19 13
-11 0 -17 -5 -14 -13z"/>
<path d="M19185 2770 c3 -5 8 -10 11 -10 2 0 4 5 4 10 0 6 -5 10 -11 10 -5 0
-7 -4 -4 -10z"/>
<path d="M16794 2735 c9 -20 13 -42 10 -50 -4 -8 -1 -15 4 -15 20 0 24 21 8
45 -18 28 -20 39 -6 30 6 -3 10 -2 10 3 0 8 -22 22 -36 22 -2 0 2 -16 10 -35z"/>
<path d="M16831 2646 c-7 -9 -18 -13 -23 -9 -6 3 -9 0 -6 -7 4 -13 46 -22 52
-11 2 3 0 14 -3 24 -6 17 -8 17 -20 3z"/>
<path d="M16927 2640 c-3 -11 -1 -23 4 -26 5 -3 9 6 9 20 0 31 -6 34 -13 6z"/>
<path d="M19141 2604 c0 -12 6 -24 14 -28 8 -3 15 -1 15 4 0 6 -4 10 -9 10 -5
0 -12 8 -14 18 -4 13 -5 12 -6 -4z"/>
<path d="M16920 2565 c7 -9 15 -13 17 -11 7 7 -7 26 -19 26 -6 0 -6 -6 2 -15z"/>
<path d="M16921 2524 c0 -11 3 -14 6 -6 3 7 2 16 -1 19 -3 4 -6 -2 -5 -13z"/>
<path d="M19100 2530 c0 -5 5 -10 10 -10 6 0 10 5 10 10 0 6 -4 10 -10 10 -5
0 -10 -4 -10 -10z"/>
<path d="M16926 2455 c4 -8 10 -12 15 -9 11 6 2 24 -11 24 -5 0 -7 -7 -4 -15z"/>
<path d="M16960 2461 c0 -5 5 -13 10 -16 6 -3 10 -2 10 4 0 5 -4 13 -10 16 -5
3 -10 2 -10 -4z"/>
<path d="M19095 2460 c-3 -5 -1 -10 4 -10 6 0 11 5 11 10 0 6 -2 10 -4 10 -3
0 -8 -4 -11 -10z"/>
<path d="M17276 2437 c3 -10 9 -15 12 -12 3 3 0 11 -7 18 -10 9 -11 8 -5 -6z"/>
<path d="M17150 2418 c0 -9 5 -20 10 -23 13 -8 13 5 0 25 -8 13 -10 13 -10 -2z"/>
<path d="M17041 2410 c-1 -18 16 -46 23 -40 2 3 -2 16 -9 30 -8 15 -14 19 -14
10z"/>
<path d="M19030 2401 c0 -5 7 -15 17 -22 15 -13 15 -12 4 9 -12 23 -21 28 -21
13z"/>
<path d="M19093 2397 c5 -15 37 -22 37 -9 0 5 -9 12 -21 15 -13 3 -19 1 -16
-6z"/>
<path d="M16976 2375 c4 -8 10 -15 15 -15 4 0 6 7 3 15 -4 8 -10 15 -15 15 -4
0 -6 -7 -3 -15z"/>
<path d="M17010 2369 c0 -6 5 -19 10 -30 8 -13 7 -19 0 -19 -6 0 -8 -5 -4 -11
13 -21 25 18 14 45 -10 27 -20 34 -20 15z"/>
<path d="M17310 2366 c0 -8 4 -17 9 -20 5 -4 7 3 4 14 -6 23 -13 26 -13 6z"/>
<path d="M17072 2315 c6 -14 15 -25 19 -25 12 0 -2 38 -17 44 -11 4 -11 0 -2
-19z"/>
<path d="M19050 2326 c0 -2 7 -7 16 -10 8 -3 12 -2 9 4 -6 10 -25 14 -25 6z"/>
<path d="M17250 2296 c0 -8 4 -17 9 -20 5 -4 7 3 4 14 -6 23 -13 26 -13 6z"/>
<path d="M17130 2288 c0 -9 5 -20 10 -23 6 -3 10 -15 10 -25 0 -10 4 -21 9
-25 11 -6 -2 44 -18 72 -9 16 -10 16 -11 1z"/>
<path d="M17300 2291 c0 -6 4 -13 10 -16 6 -3 7 1 4 9 -7 18 -14 21 -14 7z"/>
<path d="M17228 2275 c5 -11 12 -27 15 -35 5 -13 6 -13 6 1 1 8 -6 24 -15 35
-15 19 -15 19 -6 -1z"/>
<path d="M17176 2267 c3 -10 9 -15 12 -12 3 3 0 11 -7 18 -10 9 -11 8 -5 -6z"/>
<path d="M17430 2270 c0 -5 5 -10 11 -10 5 0 7 5 4 10 -3 6 -8 10 -11 10 -2 0
-4 -4 -4 -10z"/>
<path d="M18956 2262 c-3 -5 1 -15 9 -22 21 -17 27 -9 10 13 -7 10 -16 14 -19
9z"/>
<path d="M17196 2227 c3 -10 9 -15 12 -12 3 3 0 11 -7 18 -10 9 -11 8 -5 -6z"/>
<path d="M17120 2221 c0 -6 5 -13 10 -16 6 -3 10 1 10 9 0 9 -4 16 -10 16 -5
0 -10 -4 -10 -9z"/>
<path d="M19014 2202 c4 -7 2 -12 -5 -12 -8 0 -9 -4 0 -13 7 -10 7 -17 0 -24
-16 -16 -2 -36 15 -21 14 13 9 65 -7 75 -6 3 -7 1 -3 -5z"/>
<path d="M17200 2173 c0 -12 5 -25 11 -28 19 -12 22 3 5 27 l-16 22 0 -21z"/>
<path d="M18910 2184 c0 -4 8 -13 18 -20 9 -7 12 -14 5 -14 -6 0 -9 -9 -6 -20
7 -25 -12 -26 -26 -2 -14 24 -14 9 1 -23 11 -24 12 -24 28 -8 17 19 20 59 7
81 -9 13 -27 17 -27 6z"/>
<path d="M17266 2145 c4 -8 11 -15 16 -15 6 0 5 6 -2 15 -7 8 -14 15 -16 15
-2 0 -1 -7 2 -15z"/>
<path d="M18800 2157 c0 -4 7 -18 15 -31 9 -13 15 -28 14 -32 -3 -19 2 -34 11
-34 17 0 11 30 -15 68 -14 20 -25 33 -25 29z"/>
<path d="M17197 2114 c6 -15 23 -19 23 -5 0 5 -7 11 -14 14 -10 4 -13 1 -9 -9z"/>
<path d="M17230 2124 c0 -5 5 -15 10 -20 6 -6 12 -24 13 -41 1 -18 7 -29 13
-26 8 3 8 14 -1 39 -12 35 -35 67 -35 48z"/>
<path d="M17190 2060 c0 -17 -4 -29 -9 -25 -6 3 -6 -7 -1 -26 5 -18 7 -35 5
-39 -3 -4 2 -13 10 -20 8 -7 12 -17 9 -22 -8 -13 4 -58 15 -58 6 0 6 12 1 30
-5 17 -5 28 0 25 9 -5 5 45 -7 95 -4 14 -5 32 -4 42 1 9 -3 19 -9 23 -6 4 -10
-6 -10 -25z m13 -50 c3 -11 1 -18 -4 -14 -5 3 -9 12 -9 20 0 20 7 17 13 -6z"/>
<path d="M18636 2077 c3 -10 9 -15 12 -12 3 3 0 11 -7 18 -10 9 -11 8 -5 -6z"/>
<path d="M18780 2040 c0 -5 5 -10 11 -10 5 0 7 5 4 10 -3 6 -8 10 -11 10 -2 0
-4 -4 -4 -10z"/>
<path d="M17291 2014 c0 -11 3 -14 6 -6 3 7 2 16 -1 19 -3 4 -6 -2 -5 -13z"/>
<path d="M18825 2020 c3 -5 8 -10 11 -10 2 0 4 5 4 10 0 6 -5 10 -11 10 -5 0
-7 -4 -4 -10z"/>
<path d="M18720 1990 c0 -5 5 -10 10 -10 6 0 10 5 10 10 0 6 -4 10 -10 10 -5
0 -10 -4 -10 -10z"/>
<path d="M18840 1980 c0 -11 4 -20 9 -20 5 0 7 9 4 20 -3 11 -7 20 -9 20 -2 0
-4 -9 -4 -20z"/>
<path d="M17270 1981 c0 -5 5 -13 10 -16 6 -3 10 -2 10 4 0 5 -4 13 -10 16 -5
3 -10 2 -10 -4z"/>
<path d="M17240 1970 c0 -5 5 -10 10 -10 6 0 10 5 10 10 0 6 -4 10 -10 10 -5
0 -10 -4 -10 -10z"/>
<path d="M18740 1970 c-9 -6 -10 -10 -3 -10 6 0 15 5 18 10 8 12 4 12 -15 0z"/>
<path d="M17348 1943 c5 -21 7 -23 10 -9 2 10 0 22 -6 28 -6 6 -7 0 -4 -19z"/>
<path d="M17248 1928 c3 -14 2 -19 -6 -14 -8 5 -12 0 -12 -13 0 -11 5 -23 10
-26 6 -3 10 -18 10 -33 0 -21 2 -24 10 -12 8 13 10 13 10 -2 0 -9 9 -24 21
-32 12 -8 18 -19 14 -25 -3 -6 1 -11 10 -11 12 0 15 5 11 16 -3 9 -6 23 -6 32
0 14 -2 14 -9 3 -12 -18 -51 65 -51 108 0 17 -4 31 -9 31 -5 0 -7 -10 -3 -22z"/>
<path d="M17279 1918 c9 -37 30 -82 37 -76 4 5 -28 94 -38 103 -3 4 -3 -9 1
-27z"/>
<path d="M18739 1948 c-4 -9 -6 -48 -2 -48 2 0 10 6 17 13 11 10 10 15 -1 25
-7 7 -14 11 -14 10z"/>
<path d="M17327 1869 c4 -13 8 -18 11 -10 2 7 -1 18 -6 23 -8 8 -9 4 -5 -13z"/>
<path d="M18760 1861 c0 -6 5 -13 10 -16 6 -3 10 1 10 9 0 9 -4 16 -10 16 -5
0 -10 -4 -10 -9z"/>
<path d="M17217 1737 c-8 -23 65 -149 79 -135 4 5 -1 17 -12 29 -10 12 -18 30
-16 40 4 23 -44 85 -51 66z"/>
<path d="M18670 1729 c0 -5 5 -7 10 -4 6 3 10 8 10 11 0 2 -4 4 -10 4 -5 0
-10 -5 -10 -11z"/>
<path d="M17290 1660 c0 -5 5 -10 11 -10 5 0 7 5 4 10 -3 6 -8 10 -11 10 -2 0
-4 -4 -4 -10z"/>
<path d="M17220 1651 c0 -5 5 -13 10 -16 6 -3 10 -2 10 4 0 5 -4 13 -10 16 -5
3 -10 2 -10 -4z"/>
<path d="M18640 1621 c0 -5 5 -13 10 -16 6 -3 10 -2 10 4 0 5 -4 13 -10 16 -5
3 -10 2 -10 -4z"/>
<path d="M17320 1613 c0 -5 7 -18 15 -29 13 -18 14 -18 8 4 -5 22 -23 41 -23
25z"/>
<path d="M17386 1587 c3 -10 9 -15 12 -12 3 3 0 11 -7 18 -10 9 -11 8 -5 -6z"/>
<path d="M18622 1560 c9 -13 16 -16 23 -9 7 7 5 13 -5 19 -24 15 -31 11 -18
-10z"/>
<path d="M17310 1548 c0 -9 5 -20 11 -23 17 -11 18 -2 3 19 -12 17 -14 17 -14
4z"/>
<path d="M17316 1494 c6 -23 22 -44 49 -64 13 -10 10 -2 -10 25 -41 57 -45 60
-39 39z"/>
<path d="M17350 1505 c0 -15 18 -40 24 -34 3 3 -1 14 -9 25 -8 10 -14 15 -15
9z"/>
<path d="M17304 1457 c3 -10 6 -24 6 -30 0 -8 4 -7 12 1 10 10 8 16 -6 30 -18
16 -19 16 -12 -1z"/>
<path d="M18567 1407 c-3 -9 1 -18 9 -21 16 -6 18 2 5 22 -7 11 -9 11 -14 -1z"/>
<path d="M17320 1403 c0 -6 8 -17 18 -24 16 -13 16 -13 2 6 -8 11 -16 22 -17
24 -2 2 -3 0 -3 -6z"/>
<path d="M17380 1402 c0 -5 6 -17 14 -28 19 -25 31 -12 14 15 -13 21 -28 28
-28 13z"/>
<path d="M17354 1294 c1 -32 8 -69 15 -81 16 -31 23 -29 11 3 -6 14 -10 44
-10 67 0 23 -4 48 -9 56 -6 9 -8 -7 -7 -45z"/>
<path d="M18555 1310 c-3 -5 -1 -10 4 -10 6 0 11 5 11 10 0 6 -2 10 -4 10 -3
0 -8 -4 -11 -10z"/>
<path d="M17390 1241 c0 -5 5 -13 10 -16 6 -3 10 -2 10 4 0 5 -4 13 -10 16 -5
3 -10 2 -10 -4z"/>
<path d="M17406 1185 c4 -8 8 -15 10 -15 2 0 4 7 4 15 0 8 -4 15 -10 15 -5 0
-7 -7 -4 -15z"/>
<path d="M17470 1160 c0 -5 5 -10 10 -10 6 0 10 5 10 10 0 6 -4 10 -10 10 -5
0 -10 -4 -10 -10z"/>
<path d="M17446 1107 c3 -10 9 -15 12 -12 3 3 0 11 -7 18 -10 9 -11 8 -5 -6z"/>
<path d="M17420 1068 c0 -3 11 -17 25 -32 14 -15 25 -23 25 -18 0 5 -11 19
-25 32 -14 13 -25 21 -25 18z"/>
<path d="M17590 1051 c0 -5 5 -13 10 -16 6 -3 10 -2 10 4 0 5 -4 13 -10 16 -5
3 -10 2 -10 -4z"/>
<path d="M17510 1046 c0 -2 8 -10 18 -17 15 -13 16 -12 3 4 -13 16 -21 21 -21
13z"/>
<path d="M17940 1030 c0 -5 5 -10 11 -10 5 0 7 5 4 10 -3 6 -8 10 -11 10 -2 0
-4 -4 -4 -10z"/>
<path d="M18366 1007 c3 -10 9 -15 12 -12 3 3 0 11 -7 18 -10 9 -11 8 -5 -6z"/>
<path d="M17850 1001 c0 -6 4 -13 10 -16 6 -3 7 1 4 9 -7 18 -14 21 -14 7z"/>
<path d="M17536 967 c3 -10 9 -15 12 -12 3 3 0 11 -7 18 -10 9 -11 8 -5 -6z"/>
<path d="M17500 946 c0 -2 7 -9 15 -16 13 -11 14 -10 9 4 -5 14 -24 23 -24 12z"/>
<path d="M17591 904 c0 -11 3 -14 6 -6 3 7 2 16 -1 19 -3 4 -6 -2 -5 -13z"/>
<path d="M18040 911 c0 -6 5 -13 10 -16 6 -3 10 1 10 9 0 9 -4 16 -10 16 -5 0
-10 -4 -10 -9z"/>
<path d="M17530 906 c0 -2 8 -10 18 -17 15 -13 16 -12 3 4 -13 16 -21 21 -21
13z"/>
<path d="M17469 873 c8 -16 8 -23 -2 -26 -13 -5 34 -61 66 -79 16 -8 15 -4 -5
31 -27 49 -75 109 -59 74z"/>
<path d="M17780 886 c0 -2 7 -6 15 -10 8 -3 15 -1 15 4 0 6 -7 10 -15 10 -8 0
-15 -2 -15 -4z"/>
<path d="M17581 864 c0 -11 3 -14 6 -6 3 7 2 16 -1 19 -3 4 -6 -2 -5 -13z"/>
<path d="M17524 840 c8 -19 19 -36 25 -38 6 -2 11 -11 11 -19 0 -9 3 -14 6
-10 4 3 26 -9 49 -28 39 -32 74 -47 61 -26 -4 5 -1 11 5 13 7 2 5 9 -5 17 -11
9 -16 10 -16 2 0 -31 -26 0 -34 41 0 4 -7 13 -13 19 -10 11 -13 10 -13 -4 0
-9 -4 -17 -10 -17 -5 0 -10 7 -10 15 0 8 -5 15 -10 15 -6 0 -22 12 -35 28
l-25 27 14 -35z"/>
<path d="M17880 866 c0 -2 12 -12 28 -21 l27 -18 -19 21 c-17 20 -36 29 -36
18z"/>
<path d="M17790 849 c0 -5 5 -7 10 -4 6 3 10 8 10 11 0 2 -4 4 -10 4 -5 0 -10
-5 -10 -11z"/>
<path d="M17813 826 c4 -10 7 -22 7 -27 0 -5 6 -8 13 -6 6 1 11 -3 10 -10 -1
-6 4 -13 11 -16 23 -9 6 37 -22 57 -23 18 -25 18 -19 2z"/>
<path d="M17746 821 c-5 -8 -3 -17 5 -22 18 -11 21 -11 39 1 12 8 11 10 -7 10
-12 0 -23 5 -25 12 -3 9 -6 9 -12 -1z"/>
<path d="M17870 821 c0 -5 7 -14 15 -21 16 -14 18 -10 9 14 -6 17 -24 22 -24
7z"/>
<path d="M13248 8603 c6 -2 18 -2 25 0 6 3 1 5 -13 5 -14 0 -19 -2 -12 -5z"/>
<path d="M17420 981 c0 -6 4 -13 10 -16 6 -3 7 1 4 9 -7 18 -14 21 -14 7z"/>
</g>
</svg>
